<svg width="97" height="97" viewBox="0 0 97 97" fill="none" xmlns="http://www.w3.org/2000/svg">
<rect x="0.0830078" y="0.542969" width="96.1743" height="96.1742" rx="8" fill="#7F56D9"/>
<g clip-path="url(#clip0_20_4429)">
<path d="M42.9394 50.5763C42.7616 50.5763 42.5839 50.6652 42.4061 50.843C42.2283 51.0207 42.1394 51.2207 42.1394 51.443C42.1394 51.6652 42.2283 51.843 42.4061 51.9763C42.5839 52.1096 42.7616 52.1763 42.9394 52.1763C43.1172 52.1763 43.295 52.1096 43.4728 51.9763C43.6505 51.843 43.7394 51.6652 43.7394 51.443C43.7394 51.2207 43.6505 51.0207 43.4728 50.843C43.295 50.6652 43.1172 50.5763 42.9394 50.5763ZM56.9394 27.9096H41.0728L36.1394 22.9763C35.5172 22.3541 34.7839 22.043 33.9394 22.043C33.095 22.043 32.3839 22.3319 31.8061 22.9096C31.2283 23.4874 30.9394 24.1985 30.9394 25.043C30.9394 25.8874 31.2061 26.6207 31.7394 27.243L32.5394 27.9096H28.9394C27.8728 27.9096 26.9616 28.3096 26.2061 29.1096C25.4505 29.9096 25.0728 30.843 25.0728 31.9096V36.9763C25.0728 37.243 25.1394 37.443 25.2728 37.5763C25.4061 37.7096 25.5839 37.7763 25.8061 37.7763C26.0283 37.7763 26.2283 37.7096 26.4061 37.5763C26.5839 37.443 26.6728 37.243 26.6728 36.9763V31.9096C26.6728 31.1985 26.895 30.6207 27.3394 30.1763C27.7839 29.7319 28.3172 29.5096 28.9394 29.5096H34.1394L44.0061 39.3763L43.8728 40.1763C43.8728 41.5985 44.3616 42.7985 45.3394 43.7763C46.2283 44.6652 47.1839 45.2874 48.2061 45.643C49.2283 45.9985 50.495 46.1763 52.0061 46.1763C52.7172 46.1763 53.4728 46.1319 54.2728 46.043C54.6283 46.043 54.8505 45.8874 54.9394 45.5763C55.0283 45.2652 54.9839 44.9763 54.8061 44.7096C54.3616 44.2652 54.095 43.7763 54.0061 43.243C53.9172 42.8874 53.9172 42.2652 54.0061 41.3763C54.095 40.3985 54.095 39.5985 54.0061 38.9763C53.8283 38.0874 53.4061 37.3096 52.7394 36.643C52.0728 35.9763 51.3616 35.5096 50.6061 35.243C49.8505 34.9763 49.0283 34.9319 48.1394 35.1096L42.6728 29.5096H56.9394C57.5616 29.5096 58.1172 29.7319 58.6061 30.1763C59.095 30.6207 59.3394 31.1985 59.3394 31.9096V47.9096H26.6728V44.043C26.6728 43.8652 26.5839 43.6874 26.4061 43.5096C26.2283 43.3319 26.0283 43.243 25.8061 43.243C25.5839 43.243 25.4061 43.3319 25.2728 43.5096C25.1394 43.6874 25.0728 43.8652 25.0728 44.043V50.9763C25.0728 52.043 25.4505 52.9541 26.2061 53.7096C26.9616 54.4652 27.8728 54.843 28.9394 54.843H39.0728V57.3763C38.0061 57.3763 37.095 57.7541 36.3394 58.5096C35.5839 59.2652 35.2061 60.1763 35.2061 61.243C35.2061 61.5096 35.2728 61.7096 35.4061 61.843C35.5394 61.9763 35.7394 62.043 36.0061 62.043H49.8728C50.1394 62.043 50.3394 61.9763 50.4728 61.843C50.6061 61.7096 50.6728 61.5096 50.6728 61.243C50.6728 60.1763 50.295 59.2652 49.5394 58.5096C48.7839 57.7541 47.8728 57.3763 46.8061 57.3763V54.843H56.9394C58.0061 54.843 58.9172 54.4652 59.6728 53.7096C60.4283 52.9541 60.8061 52.043 60.8061 50.9763V31.9096C60.8061 30.843 60.4283 29.9096 59.6728 29.1096C58.9172 28.3096 58.0061 27.9096 56.9394 27.9096ZM32.9394 24.043C33.2061 23.7763 33.5394 23.643 33.9394 23.643C34.3394 23.643 34.6728 23.7763 34.9394 24.043L42.8061 31.9096L40.8061 34.043L32.9394 26.1763C32.5839 25.8207 32.4061 25.443 32.4061 25.043C32.4061 24.643 32.5839 24.3096 32.9394 24.043ZM46.5394 42.7096C46.8061 42.2652 47.1616 41.8874 47.6061 41.5763C48.0505 41.2652 48.5839 41.0652 49.2061 40.9763C50.5394 40.8874 51.6505 40.3541 52.5394 39.3763C52.5394 39.7319 52.495 40.3541 52.4061 41.243C52.4061 41.9541 52.4061 42.5319 52.4061 42.9763C52.4061 43.5985 52.5394 44.1763 52.8061 44.7096C51.3839 44.7096 50.1616 44.5541 49.1394 44.243C48.1172 43.9319 47.2505 43.4207 46.5394 42.7096ZM51.6061 37.643C51.6061 37.643 51.6505 37.6874 51.7394 37.7763C51.4728 38.2207 51.095 38.5985 50.6061 38.9096C50.1172 39.2207 49.6061 39.4207 49.0728 39.5096C47.6505 39.5096 46.495 40.0874 45.6061 41.243C45.5172 40.8874 45.4728 40.5319 45.4728 40.1763C45.4728 39.1985 45.8283 38.3541 46.5394 37.643C47.2505 36.9319 48.095 36.5763 49.0728 36.5763C50.0505 36.5763 50.895 36.9319 51.6061 37.643ZM45.3394 36.443L44.2728 37.5096L41.8728 35.1096L44.0061 32.9763L46.4061 35.5096L45.3394 36.443ZM48.9394 60.443H36.9394C37.1172 59.9985 37.4061 59.643 37.8061 59.3763C38.2061 59.1096 38.6283 58.9763 39.0728 58.9763H46.8061C47.2505 58.9763 47.695 59.1096 48.1394 59.3763C48.5839 59.643 48.8505 59.9985 48.9394 60.443ZM45.3394 57.3763H40.5394V54.843H45.3394V57.3763ZM56.9394 53.243H28.9394C28.3172 53.243 27.7839 53.0207 27.3394 52.5763C26.895 52.1319 26.6728 51.5985 26.6728 50.9763V49.5096H59.3394V50.9763C59.3394 51.5985 59.095 52.1319 58.6061 52.5763C58.1172 53.0207 57.5616 53.243 56.9394 53.243ZM25.8728 41.3763C26.0505 41.3763 26.2283 41.2874 26.4061 41.1096C26.5839 40.9319 26.6728 40.7319 26.6728 40.5096C26.6728 40.2874 26.5839 40.1096 26.4061 39.9763C26.2283 39.843 26.0283 39.7763 25.8061 39.7763C25.5839 39.7763 25.4061 39.843 25.2728 39.9763C25.1394 40.1096 25.0728 40.2874 25.0728 40.5096C25.0728 40.7319 25.1394 40.9319 25.2728 41.1096C25.4061 41.2874 25.6061 41.3763 25.8728 41.3763Z" fill="white"/>
</g>
<defs>
<clipPath id="clip0_20_4429">
<rect width="40.02" height="40" fill="white" transform="matrix(1 0 0 -1 25.063 62.043)"/>
</clipPath>
</defs>
</svg>
