<svg width="160" height="160" viewBox="0 0 160 160" fill="none" xmlns="http://www.w3.org/2000/svg">
<g clip-path="url(#clip0_20_4180)">
<circle cx="75" cy="75" r="75" transform="matrix(-1 0 0 1 155 5)" fill="#FABABD"/>
<path d="M179 117.899H0V117.989H179V117.899Z" fill="#EBEBEB"/>
<path d="M161.064 123.66H149.207V123.75H161.064V123.66Z" fill="#EBEBEB"/>
<path d="M118.577 124.634H115.466V124.723H118.577V124.634Z" fill="#EBEBEB"/>
<path d="M148.849 120.338H141.979V120.427H148.849V120.338Z" fill="#EBEBEB"/>
<path d="M34.2428 120.939H18.7808V121.029H34.2428V120.939Z" fill="#EBEBEB"/>
<path d="M39.6988 120.939H37.4326V121.029H39.6988V120.939Z" fill="#EBEBEB"/>
<path d="M80.6038 122.45H47.0664V122.54H80.6038V122.45Z" fill="#EBEBEB"/>
<path d="M84.846 101.933H15.7198C15.1783 101.932 14.6592 101.716 14.2767 101.333C13.8941 100.95 13.6792 100.43 13.6792 99.8887V2.71671C13.6839 2.17829 13.9009 1.66347 14.2829 1.28407C14.665 0.904678 15.1814 0.691352 15.7198 0.69043H84.846C85.3882 0.69043 85.9081 0.905798 86.2915 1.28916C86.6748 1.67251 86.8902 2.19246 86.8902 2.73461V99.8887C86.8902 100.431 86.6748 100.951 86.2915 101.334C85.9081 101.717 85.3882 101.933 84.846 101.933ZM15.7198 0.76203C15.202 0.762978 14.7057 0.969335 14.3399 1.33581C13.9741 1.70228 13.7687 2.19892 13.7687 2.71671V99.8887C13.7687 100.406 13.9741 100.903 14.3399 101.27C14.7057 101.636 15.202 101.842 15.7198 101.843H84.846C85.3642 101.842 85.8608 101.636 86.2271 101.27C86.5935 100.903 86.7998 100.407 86.8007 99.8887V2.71671C86.7998 2.19859 86.5935 1.70196 86.2271 1.33559C85.8608 0.969219 85.3642 0.762976 84.846 0.76203H15.7198Z" fill="#EBEBEB"/>
<path d="M162.285 101.933H93.155C92.6132 101.932 92.0938 101.716 91.7106 101.333C91.3275 100.95 91.1118 100.431 91.1108 99.8887V2.71671C91.1165 2.17796 91.3342 1.66314 91.7169 1.28385C92.0995 0.904553 92.6162 0.691342 93.155 0.69043H162.285C162.823 0.692293 163.338 0.906035 163.719 1.28533C164.101 1.66462 164.317 2.17891 164.322 2.71671V99.8887C164.322 100.43 164.107 100.948 163.726 101.332C163.344 101.715 162.826 101.931 162.285 101.933ZM93.155 0.76203C92.6369 0.762976 92.1403 0.969219 91.7739 1.33559C91.4075 1.70196 91.2013 2.19859 91.2003 2.71671V99.8887C91.2013 100.407 91.4075 100.903 91.7739 101.27C92.1403 101.636 92.6369 101.842 93.155 101.843H162.285C162.803 101.842 163.3 101.636 163.666 101.27C164.032 100.903 164.239 100.407 164.24 99.8887V2.71671C164.239 2.19859 164.032 1.70196 163.666 1.33559C163.3 0.969219 162.803 0.762976 162.285 0.76203H93.155Z" fill="#EBEBEB"/>
<path d="M56.034 85.723L51.0757 89.8686L58.139 100.136L63.7811 96.9857C66.8055 99.8903 70.3509 102.198 74.2312 103.788L73.6584 110.207L85.9199 112.466L87.6776 106.265C91.8635 106.169 95.9935 105.283 99.8496 103.652L103.995 108.61L114.263 101.547L111.119 95.9188C114.025 92.8964 116.333 89.3521 117.921 85.4724L124.337 86.0452L126.603 73.7909L120.402 72.0295C120.304 67.8439 119.418 63.7144 117.789 59.8575L122.747 55.7119L115.684 45.448L110.038 48.5948C107.015 45.6905 103.471 43.3828 99.5919 41.7928L100.165 35.3739L87.9103 33.1113L86.1525 39.3083C81.9672 39.4078 77.8379 40.2944 73.9805 41.9217L69.8099 36.9419L59.5496 44.0088L62.6964 49.6509C59.792 52.6755 57.4843 56.2208 55.8944 60.1009L49.4754 59.5282L47.2129 71.7825L53.4099 73.5403C53.5093 77.7302 54.3996 81.8637 56.034 85.723ZM70.3218 69.7097C70.9282 66.4289 72.4939 63.4016 74.8209 61.0107C77.1478 58.6197 80.1315 56.9725 83.3947 56.2773C86.6578 55.582 90.0538 55.8701 93.1532 57.1049C96.2527 58.3398 98.9163 60.466 100.807 63.2147C102.698 65.9634 103.732 69.2111 103.777 72.5471C103.822 75.8832 102.877 79.1578 101.062 81.9567C99.2458 84.7557 96.6408 86.9534 93.576 88.2718C90.5112 89.5903 87.1242 89.9703 83.8435 89.3639C79.4441 88.5506 75.5479 86.0231 73.0121 82.3372C70.4763 78.6513 69.5086 74.1091 70.3218 69.7097Z" fill="#F0F0F0"/>
<path d="M138.682 79.3899L142.555 80.1059L143.11 78.1476C144.435 78.1157 145.742 77.8352 146.962 77.3206L148.273 78.8887L151.52 76.6548L150.525 74.8648C151.443 73.9102 152.172 72.7902 152.673 71.564L154.702 71.743L155.418 67.873L153.457 67.3146C153.427 65.9897 153.147 64.6825 152.63 63.4625L154.198 62.1522L151.964 58.9087L150.174 59.9039C149.217 58.9878 148.098 58.2592 146.873 57.7559L147.052 55.7297L143.178 55.0137L142.623 56.9719C141.299 57.0042 139.992 57.2847 138.771 57.7989L137.472 56.2309L134.225 58.4648L135.22 60.2548C134.302 61.2093 133.573 62.3294 133.072 63.5556L131.042 63.3766L130.326 67.2465L132.284 67.805C132.315 69.1296 132.596 70.4365 133.111 71.6571L131.543 72.9674L133.777 76.2109L135.567 75.2156C136.523 76.134 137.644 76.8628 138.872 77.3636L138.682 79.3899ZM137.626 66.5914C137.817 65.5536 138.312 64.5959 139.047 63.8393C139.783 63.0827 140.726 62.5613 141.758 62.341C142.79 62.1207 143.864 62.2115 144.845 62.6018C145.825 62.9921 146.668 63.6644 147.266 64.5337C147.864 65.4029 148.191 66.4301 148.205 67.4852C148.22 68.5404 147.921 69.5761 147.346 70.4613C146.772 71.3465 145.948 72.0414 144.979 72.4582C144.009 72.875 142.938 72.9949 141.9 72.8027C140.511 72.5443 139.28 71.7453 138.479 70.5809C137.677 69.4164 137.371 67.9817 137.626 66.5914Z" fill="#F0F0F0"/>
<path d="M29.9644 90.4194L32.9143 90.9671L33.3403 89.4743C34.3483 89.4486 35.3427 89.2349 36.2723 88.8442L37.2711 90.0363L39.7449 88.3358L38.986 86.9683C39.6841 86.2433 40.2392 85.3931 40.622 84.4623L42.1686 84.5983L42.7127 81.6484L41.2199 81.2403C41.1977 80.2307 40.9839 79.2345 40.5898 78.3047L41.7855 77.3059L40.0814 74.8357L38.7246 75.5946C37.9989 74.8965 37.1489 74.3404 36.2186 73.955L36.3582 72.412L33.4047 71.8643L32.9823 73.3571C31.9731 73.3828 30.9776 73.5965 30.0467 73.9872L29.0515 72.7951L26.5777 74.4956L27.3366 75.856C26.6381 76.5806 26.083 77.4309 25.7006 78.362L24.154 78.2259L23.6099 81.1758L25.092 81.5983C25.1142 82.6079 25.328 83.6041 25.7221 84.5339L24.5263 85.5363L26.2268 88.0065L27.5872 87.2511C28.3134 87.9477 29.1633 88.5026 30.0932 88.8872L29.9644 90.4194ZM29.1624 80.6711C29.3089 79.8817 29.6861 79.1535 30.2463 78.5785C30.8065 78.0035 31.5247 77.6076 32.3099 77.4406C33.0952 77.2737 33.9123 77.3434 34.658 77.6408C35.4037 77.9382 36.0444 78.45 36.4993 79.1115C36.9541 79.773 37.2026 80.5545 37.2134 81.3572C37.2242 82.1599 36.9967 82.9478 36.5597 83.6213C36.1228 84.2948 35.4959 84.8236 34.7585 85.1408C34.0211 85.4581 33.2061 85.5496 32.4167 85.4038C31.3578 85.2073 30.4202 84.5984 29.81 83.7109C29.1998 82.8235 28.9669 81.7301 29.1624 80.6711Z" fill="#F0F0F0"/>
<path d="M82.6444 24.6768L84.8783 25.0885L85.2041 23.9608C85.9687 23.9455 86.7234 23.7839 87.4272 23.4847L88.1826 24.3904L90.0514 23.1016L89.4786 22.0742C90.0074 21.5227 90.4276 20.8766 90.7173 20.1696L91.8843 20.2734L92.296 18.0431L91.1683 17.7209C91.1496 16.9578 90.9881 16.2049 90.6922 15.5013L91.5944 14.7459L90.3091 12.8771L89.2817 13.4499C88.7302 12.9212 88.0841 12.501 87.3771 12.2113L87.4809 11.0442L85.247 10.6289L84.9284 11.7602C84.1649 11.7752 83.4113 11.9368 82.7088 12.2363L81.9534 11.3306L80.0811 12.6194L80.6575 13.6468C80.1277 14.1975 79.7073 14.8438 79.4188 15.5514L78.2481 15.4476L77.8364 17.6779L78.9641 18.0001C78.9822 18.7633 79.1437 19.5163 79.4403 20.2197L78.5381 20.9751L79.8269 22.8439L80.8544 22.2711C81.4041 22.8003 82.0491 23.2207 82.7553 23.5097L82.6444 24.6768ZM82.0393 17.2984C82.15 16.7012 82.4352 16.1501 82.8589 15.7149C83.2827 15.2797 83.8259 14.9799 84.4201 14.8535C85.0142 14.727 85.6324 14.7795 86.1967 15.0043C86.761 15.2292 87.2459 15.6163 87.5902 16.1167C87.9345 16.6172 88.1227 17.2084 88.131 17.8158C88.1393 18.4232 87.9673 19.0194 87.6368 19.529C87.3063 20.0387 86.8322 20.4389 86.2742 20.6791C85.7163 20.9193 85.0997 20.9886 84.5024 20.8784C83.7024 20.7305 82.9937 20.2712 82.532 19.6014C82.0702 18.9316 81.893 18.1059 82.0393 17.3056V17.2984Z" fill="#F0F0F0"/>
<path d="M119.747 42.6449L121.237 42.917L121.448 42.1652C121.958 42.1531 122.46 42.045 122.93 41.8466L123.435 42.4516L124.681 41.5924L124.298 40.905C124.651 40.5384 124.931 40.1084 125.125 39.6377L125.905 39.7057L126.181 38.2164L125.425 38.0016C125.414 37.4934 125.307 36.9918 125.11 36.5231L125.712 36.0183L124.852 34.7725L124.169 35.1555C123.8 34.8032 123.369 34.5228 122.898 34.3286L122.966 33.5481L121.477 33.2725L121.265 34.0278C120.756 34.0387 120.253 34.1456 119.783 34.3429L119.278 33.7414L118.033 34.6006L118.416 35.2844C118.063 35.6529 117.783 36.0839 117.589 36.5553L116.808 36.4873L116.536 37.973L117.288 38.1878C117.298 38.6977 117.406 39.2008 117.607 39.6699L117.002 40.1711L117.861 41.4205L118.548 41.0375C118.915 41.3905 119.345 41.671 119.815 41.8645L119.747 42.6449ZM119.343 37.7224C119.416 37.3232 119.606 36.9548 119.889 36.6637C120.172 36.3727 120.535 36.1721 120.932 36.0873C121.329 36.0025 121.742 36.0374 122.119 36.1874C122.496 36.3375 122.82 36.5961 123.05 36.9305C123.28 37.2648 123.406 37.6599 123.412 38.0657C123.417 38.4715 123.302 38.8699 123.081 39.2103C122.86 39.5507 122.543 39.8179 122.17 39.9781C121.797 40.1383 121.385 40.1843 120.986 40.1103C120.452 40.0111 119.979 39.704 119.671 39.2563C119.362 38.8086 119.245 38.2569 119.343 37.7224Z" fill="#F0F0F0"/>
<path d="M51.1047 24.7019L52.5939 24.9775L52.8052 24.2257C53.3146 24.2118 53.8171 24.1038 54.2873 23.9071L54.7921 24.5085L56.0379 23.6493L55.6548 22.9656C56.0079 22.5976 56.2884 22.1665 56.4818 21.6947L57.2623 21.7663L57.5379 20.277L56.7825 20.0622C56.7713 19.5528 56.6644 19.05 56.4675 18.5801L57.0689 18.0789L56.2097 16.8294L55.5224 17.2125C55.1565 16.8594 54.7263 16.5799 54.2551 16.3891L54.3231 15.6087L52.8338 15.333L52.6262 16.0848C52.1165 16.0969 51.6137 16.205 51.144 16.4034L50.6393 15.802L49.4042 16.6576L49.7872 17.345C49.4342 17.7129 49.1536 18.1441 48.9602 18.6159L48.1798 18.5443L47.9077 20.0335L48.6595 20.2483C48.6699 20.7571 48.7781 21.259 48.9781 21.7269L48.3731 22.2317L49.2323 23.4811L49.9197 23.098C50.2865 23.4499 50.7165 23.7292 51.187 23.9214L51.1047 24.7019ZM50.7001 19.7829C50.7735 19.3838 50.9637 19.0154 51.2465 18.7243C51.5294 18.4332 51.8922 18.2326 52.2891 18.1478C52.686 18.063 53.0992 18.0979 53.4762 18.248C53.8533 18.3981 54.1774 18.6567 54.4075 18.991C54.6376 19.3254 54.7633 19.7204 54.7688 20.1263C54.7743 20.5321 54.6592 20.9304 54.4382 21.2708C54.2172 21.6113 53.9002 21.8785 53.5273 22.0387C53.1544 22.1989 52.7424 22.2449 52.3433 22.1708C51.809 22.0716 51.3358 21.7645 51.0278 21.3168C50.7197 20.8691 50.6018 20.3174 50.7001 19.7829Z" fill="#F0F0F0"/>
<path d="M117.288 104.067C117.307 104.956 117.495 105.833 117.843 106.651L116.791 107.532L118.291 109.705L119.486 109.039C120.129 109.651 120.88 110.137 121.702 110.471L121.581 111.832L124.18 112.311L124.538 110.997C125.425 110.975 126.3 110.786 127.119 110.443L128 111.492L130.176 109.995L129.525 108.807C130.137 108.165 130.623 107.413 130.957 106.591L132.317 106.712L132.818 104.117L131.504 103.759C131.485 102.87 131.297 101.992 130.949 101.174L132.002 100.297L130.506 98.1202L129.292 98.7825C128.652 98.1692 127.901 97.6832 127.079 97.3505L127.198 95.9866L124.602 95.5068L124.244 96.8207C123.356 96.8436 122.479 97.0318 121.659 97.3756L120.779 96.3267L118.602 97.8231L119.271 99.0188C118.659 99.6608 118.173 100.413 117.839 101.235L116.479 101.113L115.992 103.694L117.288 104.067ZM120.868 103.258C120.996 102.56 121.327 101.917 121.821 101.408C122.314 100.9 122.948 100.549 123.641 100.401C124.334 100.253 125.055 100.314 125.713 100.576C126.372 100.838 126.938 101.289 127.339 101.873C127.741 102.457 127.96 103.147 127.969 103.855C127.979 104.564 127.777 105.259 127.391 105.853C127.005 106.447 126.451 106.914 125.8 107.193C125.148 107.472 124.429 107.551 123.732 107.421C122.802 107.246 121.978 106.71 121.442 105.93C120.906 105.15 120.701 104.189 120.872 103.258H120.868Z" fill="#F0F0F0"/>
<path d="M139.774 88.6511L135.775 90.1153L139.774 91.5688V93.0545L134.046 90.8814V89.3205L139.774 87.1475V88.6511Z" fill="#E0E0E0"/>
<path d="M144.077 84.2051H145.749L141.786 95.5215H140.114L144.077 84.2051Z" fill="#E0E0E0"/>
<path d="M151.685 89.3352V90.9068L145.957 93.0799V91.5798L149.955 90.1264L145.957 88.6621V87.1729L151.685 89.3352Z" fill="#E0E0E0"/>
<path d="M40.3966 107.761C40.9694 107.933 41.2343 108.294 41.2343 109.157V111.151C41.2176 111.275 41.2294 111.401 41.269 111.52C41.3086 111.639 41.3748 111.747 41.4625 111.836C41.5503 111.925 41.6573 111.993 41.7754 112.034C41.8934 112.076 42.0194 112.09 42.1436 112.075H42.3691V113.596H41.6531C40.0923 113.596 39.2939 112.798 39.2939 111.362V109.107C39.2939 108.706 39.0827 108.52 38.7462 108.52H38.3345V107.016H38.7462C39.0827 107.016 39.2939 106.83 39.2939 106.429V104.152C39.2939 102.72 40.0923 101.922 41.6531 101.922H42.3691V103.436H42.1436C42.0194 103.421 41.8934 103.435 41.7754 103.477C41.6573 103.518 41.5503 103.586 41.4625 103.675C41.3748 103.764 41.3086 103.872 41.269 103.991C41.2294 104.11 41.2176 104.236 41.2343 104.36V106.354C41.2343 107.224 40.9694 107.585 40.3966 107.761Z" fill="#E0E0E0"/>
<path d="M50.3206 107.017V108.538H49.9089C49.8317 108.531 49.7538 108.542 49.6813 108.57C49.6089 108.597 49.5436 108.641 49.4905 108.698C49.4374 108.754 49.3978 108.822 49.3748 108.896C49.3518 108.97 49.3459 109.048 49.3576 109.125V111.381C49.3576 112.813 48.5593 113.614 47.002 113.614H46.286V112.093H46.5115C46.6357 112.108 46.7617 112.094 46.8797 112.052C46.9978 112.011 47.1048 111.943 47.1926 111.854C47.2803 111.765 47.3465 111.657 47.3861 111.538C47.4257 111.419 47.4375 111.293 47.4208 111.169V109.165C47.4208 108.302 47.6822 107.94 48.255 107.768C47.6822 107.593 47.4208 107.231 47.4208 106.369V104.367C47.439 104.242 47.4279 104.114 47.3885 103.994C47.3491 103.874 47.2824 103.765 47.1937 103.674C47.1049 103.584 46.9965 103.516 46.8769 103.475C46.7573 103.433 46.6298 103.42 46.5043 103.437H46.2788V101.915H46.9948C48.5521 101.915 49.3504 102.713 49.3504 104.145V106.404C49.3388 106.481 49.3446 106.559 49.3677 106.633C49.3907 106.708 49.4302 106.775 49.4833 106.832C49.5364 106.889 49.6017 106.932 49.6742 106.96C49.7467 106.988 49.8245 106.998 49.9018 106.991L50.3206 107.017Z" fill="#E0E0E0"/>
<path d="M35.2593 35.1049C35.2593 32.649 37.1424 30.8948 39.677 30.8948C40.3067 30.8667 40.9346 30.9809 41.5141 31.2288C42.0936 31.4767 42.6097 31.852 43.0243 32.3268L41.8143 33.4402C41.5661 33.1391 41.2537 32.8973 40.9 32.7325C40.5463 32.5678 40.1602 32.4842 39.7701 32.4879C39.4199 32.4749 39.0708 32.5327 38.7434 32.6577C38.4161 32.7827 38.1174 32.9725 37.8651 33.2156C37.6128 33.4587 37.4121 33.7502 37.275 34.0727C37.1379 34.3952 37.0673 34.742 37.0673 35.0923C37.0673 35.4427 37.1379 35.7895 37.275 36.112C37.4121 36.4344 37.6128 36.7259 37.8651 36.9691C38.1174 37.2122 38.4161 37.4019 38.7434 37.527C39.0708 37.652 39.4199 37.7098 39.7701 37.6968C40.1618 37.7011 40.5493 37.6163 40.9035 37.4489C41.2576 37.2814 41.569 37.0357 41.8143 36.7302L43.0243 37.8471C42.6115 38.3283 42.0947 38.7092 41.5129 38.9611C40.9311 39.2129 40.2996 39.329 39.6663 39.3006C37.1424 39.3114 35.2593 37.5643 35.2593 35.1049Z" fill="#E0E0E0"/>
<path d="M49.515 35.8141H47.4923V37.7902H45.9923V35.8141H43.9839V34.3821H45.9923V32.4023H47.4923V34.3821H49.515V35.8141Z" fill="#E0E0E0"/>
<path d="M56.564 35.8141H54.5413V37.7902H53.0413V35.8141H51.0293V34.3821H53.0413V32.4023H54.5413V34.3821H56.564V35.8141Z" fill="#E0E0E0"/>
<path d="M65.1772 76.0964L66.3515 74.6858C66.8491 75.3517 67.4004 75.6918 68.052 75.6918C68.904 75.6918 69.3479 75.1799 69.3479 74.1739V69.8206H66.1259V68.1201H71.4494V74.0558C71.4494 76.3183 70.311 77.4317 68.1522 77.4317C67.587 77.4529 67.0246 77.3435 66.5086 77.1119C65.9926 76.8803 65.537 76.5328 65.1772 76.0964Z" fill="#E0E0E0"/>
<path d="M72.7241 76.6189L73.39 75.1547C74.1298 75.5953 74.974 75.8302 75.8351 75.8349C76.7767 75.8349 77.1311 75.5879 77.1311 75.1941C77.1311 74.0449 72.8816 75.2191 72.8816 72.4088C72.8816 71.0735 74.0845 70.1319 76.1359 70.1319C77.0758 70.1138 78.0061 70.3252 78.8459 70.7477L78.1657 72.2012C77.5471 71.8504 76.847 71.6689 76.1359 71.6749C75.223 71.6749 74.8292 71.9649 74.8292 72.3301C74.8292 73.5329 79.0786 72.3694 79.0786 75.1404C79.0786 76.4506 77.865 77.3779 75.7564 77.3779C74.6965 77.3959 73.6506 77.1341 72.7241 76.6189Z" fill="#E0E0E0"/>
<path d="M89.5 134.066C127.836 134.066 158.913 132.252 158.913 130.013C158.913 127.775 127.836 125.961 89.5 125.961C51.1645 125.961 20.0874 127.775 20.0874 130.013C20.0874 132.252 51.1645 134.066 89.5 134.066Z" fill="#F5F5F5"/>
<path d="M116.683 14.2979H106.004C105.555 14.2979 105.191 14.6617 105.191 15.1105V25.7897C105.191 26.2385 105.555 26.6023 106.004 26.6023H116.683C117.132 26.6023 117.496 26.2385 117.496 25.7897V15.1105C117.496 14.6617 117.132 14.2979 116.683 14.2979Z" fill="#EF4050"/>
<g opacity="0.4">
<path d="M116.683 14.2979H106.004C105.555 14.2979 105.191 14.6617 105.191 15.1105V25.7897C105.191 26.2385 105.555 26.6023 106.004 26.6023H116.683C117.132 26.6023 117.496 26.2385 117.496 25.7897V15.1105C117.496 14.6617 117.132 14.2979 116.683 14.2979Z" fill="white"/>
</g>
<path d="M109.691 19.8003L107.543 20.5843L109.691 21.3612V22.1703L106.641 21.0068V20.1762L109.691 19.0127V19.8003Z" fill="white"/>
<path d="M111.989 17.4307H112.881L110.762 23.4701H109.87L111.989 17.4307Z" fill="white"/>
<path d="M116.045 20.169V20.9996L112.995 22.1703V21.3683L115.143 20.5915L112.995 19.8075V19.0127L116.045 20.169Z" fill="white"/>
<path d="M107.901 28.8503V31.836H107.21V30.608H105.85V31.836H105.159V28.8467H105.85V30.046H107.21V28.8682L107.901 28.8503Z" fill="#263238"/>
<path d="M109.233 29.4126H108.273V28.8506H110.88V29.4126H109.924V31.8363H109.233V29.4126Z" fill="#263238"/>
<path d="M113.976 31.836V30.046L113.095 31.5245H112.77L111.893 30.0925V31.836H111.245V28.8467H111.817L112.934 30.7047L114.037 28.8467H114.606V31.836H113.976Z" fill="#263238"/>
<path d="M115.336 28.8506H116.027V31.2742H117.527V31.8363H115.336V28.8506Z" fill="#263238"/>
<g opacity="0.6">
<path d="M107.901 28.8503V31.836H107.21V30.608H105.85V31.836H105.159V28.8467H105.85V30.046H107.21V28.8682L107.901 28.8503Z" fill="white"/>
<path d="M109.233 29.4126H108.273V28.8506H110.88V29.4126H109.924V31.8363H109.233V29.4126Z" fill="white"/>
<path d="M113.976 31.836V30.046L113.095 31.5245H112.77L111.893 30.0925V31.836H111.245V28.8467H111.817L112.934 30.7047L114.037 28.8467H114.606V31.836H113.976Z" fill="white"/>
<path d="M115.336 28.8506H116.027V31.2742H117.527V31.8363H115.336V28.8506Z" fill="white"/>
</g>
<path d="M142.999 20.8564H132.32C131.871 20.8564 131.507 21.2203 131.507 21.6691V32.3482C131.507 32.7971 131.871 33.1609 132.32 33.1609H142.999C143.448 33.1609 143.812 32.7971 143.812 32.3482V21.6691C143.812 21.2203 143.448 20.8564 142.999 20.8564Z" fill="#EF4050"/>
<g opacity="0.4">
<path d="M142.999 20.8564H132.32C131.871 20.8564 131.507 21.2203 131.507 21.6691V32.3482C131.507 32.7971 131.871 33.1609 132.32 33.1609H142.999C143.448 33.1609 143.812 32.7971 143.812 32.3482V21.6691C143.812 21.2203 143.448 20.8564 142.999 20.8564Z" fill="white"/>
</g>
<path d="M135.642 27.0065C135.936 27.096 136.072 27.2822 136.072 27.7225V28.75C136.064 28.8137 136.07 28.8783 136.091 28.9391C136.112 28.9999 136.146 29.0551 136.191 29.1007C136.236 29.1462 136.291 29.1809 136.352 29.202C136.412 29.2231 136.477 29.2301 136.541 29.2226H136.655V30.0066H136.297C135.495 30.0066 135.087 29.5949 135.087 28.8574V27.6975C135.093 27.6583 135.089 27.6183 135.077 27.5806C135.065 27.5428 135.045 27.5083 135.018 27.4794C134.991 27.4506 134.958 27.4282 134.921 27.4139C134.884 27.3996 134.844 27.3937 134.804 27.3968H134.593V26.6128H134.804C134.844 26.6158 134.884 26.61 134.921 26.5957C134.958 26.5814 134.991 26.559 135.018 26.5301C135.045 26.5013 135.065 26.4667 135.077 26.429C135.089 26.3912 135.093 26.3513 135.087 26.312V25.1521C135.087 24.4146 135.495 24.0029 136.297 24.0029H136.655V24.7869H136.541C136.477 24.7794 136.412 24.7864 136.352 24.8075C136.291 24.8287 136.236 24.8633 136.191 24.9089C136.146 24.9544 136.112 25.0097 136.091 25.0704C136.07 25.1312 136.064 25.1958 136.072 25.2595V26.287C136.072 26.7309 135.936 26.917 135.642 27.0065Z" fill="white"/>
<path d="M140.74 26.617V27.401H140.529C140.49 27.3979 140.45 27.4038 140.413 27.4181C140.376 27.4324 140.343 27.4548 140.316 27.4836C140.289 27.5125 140.268 27.5471 140.256 27.5848C140.244 27.6225 140.241 27.6625 140.246 27.7017V28.8616C140.246 29.5991 139.835 30.0108 139.036 30.0108H138.678V29.2268H138.793C138.857 29.2344 138.921 29.2273 138.982 29.2062C139.042 29.1851 139.097 29.1504 139.143 29.1049C139.188 29.0593 139.222 29.0041 139.243 28.9433C139.263 28.8826 139.27 28.8179 139.262 28.7542V27.7268C139.262 27.2829 139.394 27.0967 139.691 27.0108C139.394 26.9213 139.262 26.7351 139.262 26.2948V25.2673C139.27 25.2037 139.263 25.139 139.243 25.0782C139.222 25.0175 139.188 24.9622 139.143 24.9167C139.097 24.8711 139.042 24.8365 138.982 24.8153C138.921 24.7942 138.857 24.7872 138.793 24.7948H138.678V24.0107H139.036C139.835 24.0107 140.246 24.4224 140.246 25.1599V26.3198C140.241 26.3591 140.244 26.399 140.256 26.4368C140.268 26.4745 140.289 26.5091 140.316 26.5379C140.343 26.5668 140.376 26.5892 140.413 26.6035C140.45 26.6178 140.49 26.6236 140.529 26.6206L140.74 26.617Z" fill="white"/>
<path d="M133.534 36.9486C133.551 36.6242 133.665 36.3123 133.859 36.0521C134.054 35.792 134.321 35.5952 134.627 35.4865C134.933 35.3778 135.265 35.3621 135.58 35.4414C135.895 35.5206 136.179 35.6913 136.398 35.9319L135.954 36.3436C135.863 36.2313 135.749 36.1407 135.619 36.0788C135.489 36.0168 135.346 35.9849 135.202 35.9856C135.071 35.9776 134.94 35.9964 134.817 36.0409C134.694 36.0854 134.581 36.1547 134.486 36.2444C134.391 36.3341 134.315 36.4424 134.263 36.5626C134.211 36.6828 134.184 36.8123 134.184 36.9432C134.184 37.0742 134.211 37.2037 134.263 37.3239C134.315 37.4441 134.391 37.5523 134.486 37.6421C134.581 37.7318 134.694 37.801 134.817 37.8455C134.94 37.89 135.071 37.9089 135.202 37.9009C135.346 37.9013 135.488 37.8693 135.619 37.8073C135.749 37.7454 135.863 37.655 135.954 37.5429L136.398 37.951C136.18 38.1931 135.896 38.3653 135.581 38.4457C135.266 38.5261 134.933 38.5111 134.627 38.4026C134.32 38.2941 134.052 38.097 133.858 37.8362C133.663 37.5755 133.55 37.2628 133.534 36.9379V36.9486Z" fill="#263238"/>
<path d="M136.584 38.1511L136.817 37.6284C137.108 37.8274 137.452 37.9357 137.805 37.9399C138.213 37.9399 138.381 37.8038 138.381 37.6213C138.381 37.0592 136.641 37.4458 136.641 36.336C136.641 35.8277 137.053 35.4017 137.901 35.4017C138.265 35.3956 138.623 35.487 138.94 35.6666L138.728 36.1928C138.476 36.0452 138.19 35.965 137.898 35.9601C137.49 35.9601 137.329 36.1105 137.329 36.3002C137.329 36.8516 139.069 36.4721 139.069 37.5675C139.069 38.0687 138.653 38.4948 137.801 38.4948C137.37 38.505 136.946 38.3852 136.584 38.1511Z" fill="#263238"/>
<path d="M139.308 38.151L139.544 37.6284C139.835 37.8289 140.179 37.9374 140.532 37.9398C140.941 37.9398 141.109 37.8038 141.109 37.6212C141.109 37.0591 139.369 37.4458 139.369 36.336C139.369 35.8276 139.781 35.4016 140.629 35.4016C140.993 35.396 141.351 35.4875 141.667 35.6665L141.453 36.1928C141.202 36.0448 140.917 35.9646 140.626 35.9601C140.214 35.9601 140.056 36.1104 140.056 36.3002C140.056 36.8515 141.796 36.472 141.796 37.5675C141.796 38.0687 141.381 38.4947 140.525 38.4947C140.094 38.5049 139.67 38.3852 139.308 38.151Z" fill="#263238"/>
<g opacity="0.6">
<path d="M133.534 36.9486C133.551 36.6242 133.665 36.3123 133.859 36.0521C134.054 35.792 134.321 35.5952 134.627 35.4865C134.933 35.3778 135.265 35.3621 135.58 35.4414C135.895 35.5206 136.179 35.6913 136.398 35.9319L135.954 36.3436C135.863 36.2313 135.749 36.1407 135.619 36.0788C135.489 36.0168 135.346 35.9849 135.202 35.9856C135.071 35.9776 134.94 35.9964 134.817 36.0409C134.694 36.0854 134.581 36.1547 134.486 36.2444C134.391 36.3341 134.315 36.4424 134.263 36.5626C134.211 36.6828 134.184 36.8123 134.184 36.9432C134.184 37.0742 134.211 37.2037 134.263 37.3239C134.315 37.4441 134.391 37.5523 134.486 37.6421C134.581 37.7318 134.694 37.801 134.817 37.8455C134.94 37.89 135.071 37.9089 135.202 37.9009C135.346 37.9013 135.488 37.8693 135.619 37.8073C135.749 37.7454 135.863 37.655 135.954 37.5429L136.398 37.951C136.18 38.1931 135.896 38.3653 135.581 38.4457C135.266 38.5261 134.933 38.5111 134.627 38.4026C134.32 38.2941 134.052 38.097 133.858 37.8362C133.663 37.5755 133.55 37.2628 133.534 36.9379V36.9486Z" fill="white"/>
<path d="M136.584 38.1511L136.817 37.6284C137.108 37.8274 137.452 37.9357 137.805 37.9399C138.213 37.9399 138.381 37.8038 138.381 37.6213C138.381 37.0592 136.641 37.4458 136.641 36.336C136.641 35.8277 137.053 35.4017 137.901 35.4017C138.265 35.3956 138.623 35.487 138.94 35.6666L138.728 36.1928C138.476 36.0452 138.19 35.965 137.898 35.9601C137.49 35.9601 137.329 36.1105 137.329 36.3002C137.329 36.8516 139.069 36.4721 139.069 37.5675C139.069 38.0687 138.653 38.4948 137.801 38.4948C137.37 38.505 136.946 38.3852 136.584 38.1511Z" fill="white"/>
<path d="M139.308 38.151L139.544 37.6284C139.835 37.8289 140.179 37.9374 140.532 37.9398C140.941 37.9398 141.109 37.8038 141.109 37.6212C141.109 37.0591 139.369 37.4458 139.369 36.336C139.369 35.8276 139.781 35.4016 140.629 35.4016C140.993 35.396 141.351 35.4875 141.667 35.6665L141.453 36.1928C141.202 36.0448 140.917 35.9646 140.626 35.9601C140.214 35.9601 140.056 36.1104 140.056 36.3002C140.056 36.8515 141.796 36.472 141.796 37.5675C141.796 38.0687 141.381 38.4947 140.525 38.4947C140.094 38.5049 139.67 38.3852 139.308 38.151Z" fill="white"/>
</g>
<path d="M97.0392 19.6572H53.1807V51.4047H97.0392V19.6572Z" fill="black"/>
<path opacity="0.9" d="M97.0392 19.6572H53.1807V51.4047H97.0392V19.6572Z" fill="white"/>
<path opacity="0.1" d="M59.2881 19.6572H53.1807V51.4047H59.2881V19.6572Z" fill="black"/>
<path d="M97.0392 19.6572H53.1807V22.625H97.0392V19.6572Z" fill="#EF4050"/>
<g opacity="0.2">
<path d="M70.78 27.1037H62.7931C62.6981 27.1037 62.6071 27.066 62.5399 26.9988C62.4728 26.9317 62.4351 26.8406 62.4351 26.7457C62.4351 26.6507 62.4728 26.5597 62.5399 26.4926C62.6071 26.4254 62.6981 26.3877 62.7931 26.3877H70.78C70.875 26.3877 70.966 26.4254 71.0332 26.4926C71.1003 26.5597 71.138 26.6507 71.138 26.7457C71.138 26.8406 71.1003 26.9317 71.0332 26.9988C70.966 27.066 70.875 27.1037 70.78 27.1037Z" fill="black"/>
<path d="M88.4256 27.1037H72.9063C72.8114 27.1037 72.7203 27.066 72.6532 26.9988C72.5861 26.9317 72.5483 26.8406 72.5483 26.7457C72.5483 26.6507 72.5861 26.5597 72.6532 26.4926C72.7203 26.4254 72.8114 26.3877 72.9063 26.3877H88.4256C88.5206 26.3877 88.6116 26.4254 88.6788 26.4926C88.7459 26.5597 88.7836 26.6507 88.7836 26.7457C88.7836 26.8406 88.7459 26.9317 88.6788 26.9988C88.6116 27.066 88.5206 27.1037 88.4256 27.1037Z" fill="black"/>
<path d="M84.731 29.4416H63.8668C63.7718 29.4416 63.6808 29.4039 63.6136 29.3367C63.5465 29.2696 63.5088 29.1785 63.5088 29.0836C63.5088 28.9886 63.5465 28.8976 63.6136 28.8304C63.6808 28.7633 63.7718 28.7256 63.8668 28.7256H84.731C84.826 28.7256 84.917 28.7633 84.9842 28.8304C85.0513 28.8976 85.089 28.9886 85.089 29.0836C85.089 29.1785 85.0513 29.2696 84.9842 29.3367C84.917 29.4039 84.826 29.4416 84.731 29.4416Z" fill="black"/>
<path d="M76.2319 31.7756H62.7926C62.6976 31.7756 62.6066 31.7379 62.5394 31.6707C62.4723 31.6036 62.4346 31.5125 62.4346 31.4176C62.4346 31.3226 62.4723 31.2316 62.5394 31.1644C62.6066 31.0973 62.6976 31.0596 62.7926 31.0596H76.2319C76.3268 31.0596 76.4179 31.0973 76.485 31.1644C76.5522 31.2316 76.5899 31.3226 76.5899 31.4176C76.5899 31.5125 76.5522 31.6036 76.485 31.6707C76.4179 31.7379 76.3268 31.7756 76.2319 31.7756Z" fill="black"/>
<path d="M88.4257 31.7756H78.7955C78.7006 31.7756 78.6095 31.7379 78.5424 31.6707C78.4752 31.6036 78.4375 31.5125 78.4375 31.4176C78.4375 31.3226 78.4752 31.2316 78.5424 31.1644C78.6095 31.0973 78.7006 31.0596 78.7955 31.0596H88.4257C88.5206 31.0596 88.6117 31.0973 88.6788 31.1644C88.746 31.2316 88.7837 31.3226 88.7837 31.4176C88.7837 31.5125 88.746 31.6036 88.6788 31.6707C88.6117 31.7379 88.5206 31.7756 88.4257 31.7756Z" fill="black"/>
<path d="M70.2139 34.1135H62.7926C62.6976 34.1135 62.6066 34.0757 62.5394 34.0086C62.4723 33.9415 62.4346 33.8504 62.4346 33.7555C62.4346 33.6605 62.4723 33.5695 62.5394 33.5023C62.6066 33.4352 62.6976 33.3975 62.7926 33.3975H70.2139C70.3089 33.3975 70.3999 33.4352 70.4671 33.5023C70.5342 33.5695 70.5719 33.6605 70.5719 33.7555C70.5719 33.8504 70.5342 33.9415 70.4671 34.0086C70.3999 34.0757 70.3089 34.1135 70.2139 34.1135Z" fill="black"/>
<path d="M84.3048 34.1135H72.6197C72.5248 34.1135 72.4337 34.0757 72.3666 34.0086C72.2994 33.9415 72.2617 33.8504 72.2617 33.7555C72.2617 33.6605 72.2994 33.5695 72.3666 33.5023C72.4337 33.4352 72.5248 33.3975 72.6197 33.3975H84.3048C84.3998 33.3975 84.4908 33.4352 84.558 33.5023C84.6251 33.5695 84.6628 33.6605 84.6628 33.7555C84.6628 33.8504 84.6251 33.9415 84.558 34.0086C84.4908 34.0757 84.3998 34.1135 84.3048 34.1135Z" fill="black"/>
<path d="M73.8514 36.4514H63.8668C63.7718 36.4514 63.6808 36.4136 63.6136 36.3465C63.5465 36.2794 63.5088 36.1883 63.5088 36.0934C63.5088 35.9984 63.5465 35.9073 63.6136 35.8402C63.6808 35.7731 63.7718 35.7354 63.8668 35.7354H73.8514C73.9464 35.7354 74.0374 35.7731 74.1046 35.8402C74.1717 35.9073 74.2094 35.9984 74.2094 36.0934C74.2094 36.1883 74.1717 36.2794 74.1046 36.3465C74.0374 36.4136 73.9464 36.4514 73.8514 36.4514Z" fill="black"/>
<path d="M75.1008 38.7892H63.8668C63.7718 38.7892 63.6808 38.7515 63.6136 38.6844C63.5465 38.6172 63.5088 38.5262 63.5088 38.4312C63.5088 38.3363 63.5465 38.2452 63.6136 38.1781C63.6808 38.111 63.7718 38.0732 63.8668 38.0732H75.1008C75.1958 38.0732 75.2868 38.111 75.354 38.1781C75.4211 38.2452 75.4588 38.3363 75.4588 38.4312C75.4588 38.5262 75.4211 38.6172 75.354 38.6844C75.2868 38.7515 75.1958 38.7892 75.1008 38.7892Z" fill="black"/>
<path d="M88.4253 38.7892H76.9693C76.8744 38.7892 76.7833 38.7515 76.7162 38.6844C76.649 38.6172 76.6113 38.5262 76.6113 38.4312C76.6113 38.3363 76.649 38.2452 76.7162 38.1781C76.7833 38.111 76.8744 38.0732 76.9693 38.0732H88.4253C88.5203 38.0732 88.6113 38.111 88.6785 38.1781C88.7456 38.2452 88.7833 38.3363 88.7833 38.4312C88.7833 38.5262 88.7456 38.6172 88.6785 38.6844C88.6113 38.7515 88.5203 38.7892 88.4253 38.7892Z" fill="black"/>
<path d="M69.2224 41.1232H62.7784C62.6835 41.1232 62.5924 41.0855 62.5253 41.0184C62.4581 40.9512 62.4204 40.8602 62.4204 40.7652C62.4204 40.6703 62.4581 40.5792 62.5253 40.5121C62.5924 40.4449 62.6835 40.4072 62.7784 40.4072H69.2224C69.3174 40.4072 69.4084 40.4449 69.4756 40.5121C69.5427 40.5792 69.5804 40.6703 69.5804 40.7652C69.5804 40.8602 69.5427 40.9512 69.4756 41.0184C69.4084 41.0855 69.3174 41.1232 69.2224 41.1232Z" fill="black"/>
<path d="M88.4257 41.1232H71.4171C71.3221 41.1232 71.2311 41.0855 71.1639 41.0184C71.0968 40.9512 71.0591 40.8602 71.0591 40.7652C71.0591 40.6703 71.0968 40.5792 71.1639 40.5121C71.2311 40.4449 71.3221 40.4072 71.4171 40.4072H88.4257C88.5206 40.4072 88.6117 40.4449 88.6788 40.5121C88.7459 40.5792 88.7837 40.6703 88.7837 40.7652C88.7837 40.8602 88.7459 40.9512 88.6788 41.0184C88.6117 41.0855 88.5206 41.1232 88.4257 41.1232Z" fill="black"/>
<path d="M75.0292 43.4611H63.8668C63.7718 43.4611 63.6808 43.4234 63.6136 43.3563C63.5465 43.2891 63.5088 43.1981 63.5088 43.1031C63.5088 43.0082 63.5465 42.9171 63.6136 42.85C63.6808 42.7828 63.7718 42.7451 63.8668 42.7451H75.0292C75.1242 42.7451 75.2152 42.7828 75.2824 42.85C75.3495 42.9171 75.3872 43.0082 75.3872 43.1031C75.3872 43.1981 75.3495 43.2891 75.2824 43.3563C75.2152 43.4234 75.1242 43.4611 75.0292 43.4611Z" fill="black"/>
<path d="M83.811 43.4611H76.5865C76.4916 43.4611 76.4005 43.4234 76.3334 43.3563C76.2662 43.2891 76.2285 43.1981 76.2285 43.1031C76.2285 43.0082 76.2662 42.9171 76.3334 42.85C76.4005 42.7828 76.4916 42.7451 76.5865 42.7451H83.811C83.9059 42.7451 83.997 42.7828 84.0641 42.85C84.1312 42.9171 84.169 43.0082 84.169 43.1031C84.169 43.1981 84.1312 43.2891 84.0641 43.3563C83.997 43.4234 83.9059 43.4611 83.811 43.4611Z" fill="black"/>
<path d="M76.7154 45.798H63.8668C63.7718 45.798 63.6808 45.7603 63.6136 45.6932C63.5465 45.626 63.5088 45.535 63.5088 45.44C63.5088 45.3451 63.5465 45.254 63.6136 45.1869C63.6808 45.1197 63.7718 45.082 63.8668 45.082H76.7154C76.8104 45.082 76.9014 45.1197 76.9686 45.1869C77.0357 45.254 77.0734 45.3451 77.0734 45.44C77.0734 45.535 77.0357 45.626 76.9686 45.6932C76.9014 45.7603 76.8104 45.798 76.7154 45.798Z" fill="black"/>
</g>
<path opacity="0.4" d="M95.1527 21.7732C95.4908 21.7732 95.7649 21.4991 95.7649 21.161C95.7649 20.8229 95.4908 20.5488 95.1527 20.5488C94.8146 20.5488 94.5405 20.8229 94.5405 21.161C94.5405 21.4991 94.8146 21.7732 95.1527 21.7732Z" fill="white"/>
<path opacity="0.4" d="M93.0008 21.7732C93.3389 21.7732 93.613 21.4991 93.613 21.161C93.613 20.8229 93.3389 20.5488 93.0008 20.5488C92.6628 20.5488 92.3887 20.8229 92.3887 21.161C92.3887 21.4991 92.6628 21.7732 93.0008 21.7732Z" fill="white"/>
<path opacity="0.4" d="M90.8529 21.7732C91.191 21.7732 91.4651 21.4991 91.4651 21.161C91.4651 20.8229 91.191 20.5488 90.8529 20.5488C90.5148 20.5488 90.2407 20.8229 90.2407 21.161C90.2407 21.4991 90.5148 21.7732 90.8529 21.7732Z" fill="white"/>
<g opacity="0.2">
<path d="M56.3419 27.1037C56.2469 27.1037 56.1559 27.066 56.0887 26.9988C56.0216 26.9317 55.9839 26.8406 55.9839 26.7457C55.9839 26.6507 56.0216 26.5597 56.0887 26.4926C56.1559 26.4254 56.2469 26.3877 56.3419 26.3877C56.4368 26.3877 56.5279 26.4254 56.595 26.4926C56.6622 26.5597 56.6999 26.6507 56.6999 26.7457C56.6999 26.8406 56.6622 26.9317 56.595 26.9988C56.5279 27.066 56.4368 27.1037 56.3419 27.1037Z" fill="black"/>
<path d="M56.3419 29.4416C56.2469 29.4416 56.1559 29.4039 56.0887 29.3367C56.0216 29.2696 55.9839 29.1785 55.9839 29.0836C55.9839 28.9886 56.0216 28.8976 56.0887 28.8304C56.1559 28.7633 56.2469 28.7256 56.3419 28.7256C56.4368 28.7256 56.5279 28.7633 56.595 28.8304C56.6622 28.8976 56.6999 28.9886 56.6999 29.0836C56.6999 29.1785 56.6622 29.2696 56.595 29.3367C56.5279 29.4039 56.4368 29.4416 56.3419 29.4416Z" fill="black"/>
<path d="M56.3419 31.7756C56.2469 31.7756 56.1559 31.7379 56.0887 31.6707C56.0216 31.6036 55.9839 31.5125 55.9839 31.4176C55.9839 31.3226 56.0216 31.2316 56.0887 31.1644C56.1559 31.0973 56.2469 31.0596 56.3419 31.0596C56.4368 31.0596 56.5279 31.0973 56.595 31.1644C56.6622 31.2316 56.6999 31.3226 56.6999 31.4176C56.6999 31.5125 56.6622 31.6036 56.595 31.6707C56.5279 31.7379 56.4368 31.7756 56.3419 31.7756Z" fill="black"/>
<path d="M56.3419 34.1135C56.2469 34.1135 56.1559 34.0757 56.0887 34.0086C56.0216 33.9415 55.9839 33.8504 55.9839 33.7555C55.9839 33.6605 56.0216 33.5695 56.0887 33.5023C56.1559 33.4352 56.2469 33.3975 56.3419 33.3975C56.4368 33.3975 56.5279 33.4352 56.595 33.5023C56.6622 33.5695 56.6999 33.6605 56.6999 33.7555C56.6999 33.8504 56.6622 33.9415 56.595 34.0086C56.5279 34.0757 56.4368 34.1135 56.3419 34.1135Z" fill="black"/>
<path d="M56.3419 36.4514C56.2469 36.4514 56.1559 36.4136 56.0887 36.3465C56.0216 36.2794 55.9839 36.1883 55.9839 36.0934C55.9839 35.9984 56.0216 35.9073 56.0887 35.8402C56.1559 35.7731 56.2469 35.7354 56.3419 35.7354C56.4368 35.7354 56.5279 35.7731 56.595 35.8402C56.6622 35.9073 56.6999 35.9984 56.6999 36.0934C56.6999 36.1883 56.6622 36.2794 56.595 36.3465C56.5279 36.4136 56.4368 36.4514 56.3419 36.4514Z" fill="black"/>
<path d="M56.3419 38.7892C56.2469 38.7892 56.1559 38.7515 56.0887 38.6844C56.0216 38.6172 55.9839 38.5262 55.9839 38.4312C55.9839 38.3363 56.0216 38.2452 56.0887 38.1781C56.1559 38.111 56.2469 38.0732 56.3419 38.0732C56.4368 38.0732 56.5279 38.111 56.595 38.1781C56.6622 38.2452 56.6999 38.3363 56.6999 38.4312C56.6999 38.5262 56.6622 38.6172 56.595 38.6844C56.5279 38.7515 56.4368 38.7892 56.3419 38.7892Z" fill="black"/>
<path d="M56.3419 41.1232C56.2469 41.1232 56.1559 41.0855 56.0887 41.0184C56.0216 40.9512 55.9839 40.8602 55.9839 40.7652C55.9839 40.6703 56.0216 40.5792 56.0887 40.5121C56.1559 40.4449 56.2469 40.4072 56.3419 40.4072C56.4368 40.4072 56.5279 40.4449 56.595 40.5121C56.6622 40.5792 56.6999 40.6703 56.6999 40.7652C56.6999 40.8602 56.6622 40.9512 56.595 41.0184C56.5279 41.0855 56.4368 41.1232 56.3419 41.1232Z" fill="black"/>
<path d="M56.3419 43.4611C56.2469 43.4611 56.1559 43.4234 56.0887 43.3563C56.0216 43.2891 55.9839 43.1981 55.9839 43.1031C55.9839 43.0082 56.0216 42.9171 56.0887 42.85C56.1559 42.7828 56.2469 42.7451 56.3419 42.7451C56.4368 42.7451 56.5279 42.7828 56.595 42.85C56.6622 42.9171 56.6999 43.0082 56.6999 43.1031C56.6999 43.1981 56.6622 43.2891 56.595 43.3563C56.5279 43.4234 56.4368 43.4611 56.3419 43.4611Z" fill="black"/>
<path d="M56.3419 45.798C56.2469 45.798 56.1559 45.7603 56.0887 45.6932C56.0216 45.626 55.9839 45.535 55.9839 45.44C55.9839 45.3451 56.0216 45.254 56.0887 45.1869C56.1559 45.1197 56.2469 45.082 56.3419 45.082C56.4368 45.082 56.5279 45.1197 56.595 45.1869C56.6622 45.254 56.6999 45.3451 56.6999 45.44C56.6999 45.535 56.6622 45.626 56.595 45.6932C56.5279 45.7603 56.4368 45.798 56.3419 45.798Z" fill="black"/>
</g>
<path d="M136.763 45.5625H79.293V82.3613H136.763V45.5625Z" fill="#263238"/>
<path opacity="0.9" d="M136.763 45.5625H79.293V82.3613H136.763V45.5625Z" fill="white"/>
<path opacity="0.1" d="M88.2573 45.5625H79.293V82.3613H88.2573V45.5625Z" fill="black"/>
<path d="M136.763 45.5625H79.293V48.5303H136.763V45.5625Z" fill="#EF4050"/>
<path d="M83.3531 51.7844L82.4008 52.1424L83.3531 52.5004V52.8584L81.9927 52.3393V51.9813L83.3531 51.4658V51.7844Z" fill="white"/>
<path d="M84.3802 50.7246H84.7776L83.8324 53.4203H83.4351L84.3802 50.7246Z" fill="white"/>
<path d="M86.1919 51.9455V52.3035L84.8315 52.8226V52.4646L85.7838 52.1066L84.8315 51.7486V51.3906L86.1919 51.9455Z" fill="white"/>
<g opacity="0.2">
<path d="M85.9913 55.8762H82.0963C82.0013 55.8762 81.9103 55.8384 81.8431 55.7713C81.776 55.7042 81.7383 55.6131 81.7383 55.5182C81.7383 55.4232 81.776 55.3321 81.8431 55.265C81.9103 55.1979 82.0013 55.1602 82.0963 55.1602H85.9913C86.0863 55.1602 86.1773 55.1979 86.2445 55.265C86.3116 55.3321 86.3493 55.4232 86.3493 55.5182C86.3493 55.6131 86.3116 55.7042 86.2445 55.7713C86.1773 55.8384 86.0863 55.8762 85.9913 55.8762Z" fill="black"/>
<path d="M85.9913 58.2101H82.0963C82.0013 58.2101 81.9103 58.1724 81.8431 58.1053C81.776 58.0381 81.7383 57.9471 81.7383 57.8521C81.7383 57.7572 81.776 57.6661 81.8431 57.599C81.9103 57.5319 82.0013 57.4941 82.0963 57.4941H85.9913C86.0863 57.4941 86.1773 57.5319 86.2445 57.599C86.3116 57.6661 86.3493 57.7572 86.3493 57.8521C86.3493 57.9471 86.3116 58.0381 86.2445 58.1053C86.1773 58.1724 86.0863 58.2101 85.9913 58.2101Z" fill="black"/>
<path d="M85.9913 60.548H82.0963C82.0013 60.548 81.9103 60.5103 81.8431 60.4432C81.776 60.376 81.7383 60.285 81.7383 60.19C81.7383 60.0951 81.776 60.004 81.8431 59.9369C81.9103 59.8697 82.0013 59.832 82.0963 59.832H85.9913C86.0863 59.832 86.1773 59.8697 86.2445 59.9369C86.3116 60.004 86.3493 60.0951 86.3493 60.19C86.3493 60.285 86.3116 60.376 86.2445 60.4432C86.1773 60.5103 86.0863 60.548 85.9913 60.548Z" fill="black"/>
<path d="M85.9913 62.8859H82.0963C82.0013 62.8859 81.9103 62.8482 81.8431 62.7811C81.776 62.7139 81.7383 62.6229 81.7383 62.5279C81.7383 62.433 81.776 62.3419 81.8431 62.2748C81.9103 62.2076 82.0013 62.1699 82.0963 62.1699H85.9913C86.0863 62.1699 86.1773 62.2076 86.2445 62.2748C86.3116 62.3419 86.3493 62.433 86.3493 62.5279C86.3493 62.6229 86.3116 62.7139 86.2445 62.7811C86.1773 62.8482 86.0863 62.8859 85.9913 62.8859Z" fill="black"/>
<path d="M85.9913 65.2238H82.0963C82.0013 65.2238 81.9103 65.1861 81.8431 65.119C81.776 65.0518 81.7383 64.9608 81.7383 64.8658C81.7383 64.7709 81.776 64.6798 81.8431 64.6127C81.9103 64.5455 82.0013 64.5078 82.0963 64.5078H85.9913C86.0863 64.5078 86.1773 64.5455 86.2445 64.6127C86.3116 64.6798 86.3493 64.7709 86.3493 64.8658C86.3493 64.9608 86.3116 65.0518 86.2445 65.119C86.1773 65.1861 86.0863 65.2238 85.9913 65.2238Z" fill="black"/>
<path d="M85.9913 67.5578H82.0963C82.0013 67.5578 81.9103 67.5201 81.8431 67.4529C81.776 67.3858 81.7383 67.2947 81.7383 67.1998C81.7383 67.1048 81.776 67.0138 81.8431 66.9467C81.9103 66.8795 82.0013 66.8418 82.0963 66.8418H85.9913C86.0863 66.8418 86.1773 66.8795 86.2445 66.9467C86.3116 67.0138 86.3493 67.1048 86.3493 67.1998C86.3493 67.2947 86.3116 67.3858 86.2445 67.4529C86.1773 67.5201 86.0863 67.5578 85.9913 67.5578Z" fill="black"/>
<path d="M85.9913 69.8957H82.0963C82.0013 69.8957 81.9103 69.858 81.8431 69.7908C81.776 69.7237 81.7383 69.6326 81.7383 69.5377C81.7383 69.4427 81.776 69.3517 81.8431 69.2845C81.9103 69.2174 82.0013 69.1797 82.0963 69.1797H85.9913C86.0863 69.1797 86.1773 69.2174 86.2445 69.2845C86.3116 69.3517 86.3493 69.4427 86.3493 69.5377C86.3493 69.6326 86.3116 69.7237 86.2445 69.7908C86.1773 69.858 86.0863 69.8957 85.9913 69.8957Z" fill="black"/>
<path d="M85.9913 72.2336H82.0963C82.0013 72.2336 81.9103 72.1959 81.8431 72.1287C81.776 72.0616 81.7383 71.9705 81.7383 71.8756C81.7383 71.7806 81.776 71.6896 81.8431 71.6224C81.9103 71.5553 82.0013 71.5176 82.0963 71.5176H85.9913C86.0863 71.5176 86.1773 71.5553 86.2445 71.6224C86.3116 71.6896 86.3493 71.7806 86.3493 71.8756C86.3493 71.9705 86.3116 72.0616 86.2445 72.1287C86.1773 72.1959 86.0863 72.2336 85.9913 72.2336Z" fill="black"/>
<path d="M85.9913 74.5705H82.0963C82.0013 74.5705 81.9103 74.5328 81.8431 74.4656C81.776 74.3985 81.7383 74.3074 81.7383 74.2125C81.7383 74.1175 81.776 74.0265 81.8431 73.9594C81.9103 73.8922 82.0013 73.8545 82.0963 73.8545H85.9913C86.0863 73.8545 86.1773 73.8922 86.2445 73.9594C86.3116 74.0265 86.3493 74.1175 86.3493 74.2125C86.3493 74.3074 86.3116 74.3985 86.2445 74.4656C86.1773 74.5328 86.0863 74.5705 85.9913 74.5705Z" fill="black"/>
</g>
<path d="M97.2503 55.8762H89.2633C89.1683 55.8762 89.0773 55.8384 89.0101 55.7713C88.943 55.7042 88.9053 55.6131 88.9053 55.5182C88.9053 55.4232 88.943 55.3321 89.0101 55.265C89.0773 55.1979 89.1683 55.1602 89.2633 55.1602H97.2503C97.3452 55.1602 97.4363 55.1979 97.5034 55.265C97.5705 55.3321 97.6083 55.4232 97.6083 55.5182C97.6083 55.6131 97.5705 55.7042 97.5034 55.7713C97.4363 55.8384 97.3452 55.8762 97.2503 55.8762Z" fill="#EF4050"/>
<path d="M120.195 55.8762H99.377C99.2821 55.8762 99.191 55.8384 99.1239 55.7713C99.0568 55.7042 99.019 55.6131 99.019 55.5182C99.019 55.4232 99.0568 55.3321 99.1239 55.265C99.191 55.1979 99.2821 55.1602 99.377 55.1602H120.195C120.29 55.1602 120.381 55.1979 120.448 55.265C120.515 55.3321 120.553 55.4232 120.553 55.5182C120.553 55.6131 120.515 55.7042 120.448 55.7713C120.381 55.8384 120.29 55.8762 120.195 55.8762Z" fill="#263238"/>
<g opacity="0.2">
<path d="M129.696 55.8762H123.664C123.569 55.8762 123.478 55.8384 123.411 55.7713C123.343 55.7042 123.306 55.6131 123.306 55.5182C123.306 55.4232 123.343 55.3321 123.411 55.265C123.478 55.1979 123.569 55.1602 123.664 55.1602H129.696C129.791 55.1602 129.882 55.1979 129.949 55.265C130.016 55.3321 130.054 55.4232 130.054 55.5182C130.054 55.6131 130.016 55.7042 129.949 55.7713C129.882 55.8384 129.791 55.8762 129.696 55.8762Z" fill="#263238"/>
</g>
<g opacity="0.2">
<path d="M111.202 58.2101H90.3375C90.2425 58.2101 90.1515 58.1724 90.0843 58.1053C90.0172 58.0381 89.9795 57.9471 89.9795 57.8521C89.9795 57.7572 90.0172 57.6661 90.0843 57.599C90.1515 57.5319 90.2425 57.4941 90.3375 57.4941H111.202C111.297 57.4941 111.388 57.5319 111.455 57.599C111.522 57.6661 111.56 57.7572 111.56 57.8521C111.56 57.9471 111.522 58.0381 111.455 58.1053C111.388 58.1724 111.297 58.2101 111.202 58.2101Z" fill="#263238"/>
</g>
<path d="M132.56 58.2101H113.128C113.033 58.2101 112.942 58.1724 112.874 58.1053C112.807 58.0381 112.77 57.9471 112.77 57.8521C112.77 57.7572 112.807 57.6661 112.874 57.599C112.942 57.5319 113.033 57.4941 113.128 57.4941H132.574C132.669 57.4941 132.76 57.5319 132.827 57.599C132.894 57.6661 132.932 57.7572 132.932 57.8521C132.932 57.9471 132.894 58.0381 132.827 58.1053C132.76 58.1724 132.669 58.2101 132.574 58.2101H132.56Z" fill="#EF4050"/>
<path d="M102.703 60.548H90.3375C90.2425 60.548 90.1515 60.5103 90.0843 60.4432C90.0172 60.376 89.9795 60.285 89.9795 60.19C89.9795 60.0951 90.0172 60.004 90.0843 59.9369C90.1515 59.8697 90.2425 59.832 90.3375 59.832H102.703C102.798 59.832 102.889 59.8697 102.956 59.9369C103.023 60.004 103.061 60.0951 103.061 60.19C103.061 60.285 103.023 60.376 102.956 60.4432C102.889 60.5103 102.798 60.548 102.703 60.548Z" fill="#263238"/>
<path d="M117.424 60.548H105.252C105.157 60.548 105.066 60.5103 104.998 60.4432C104.931 60.376 104.894 60.285 104.894 60.19C104.894 60.0951 104.931 60.004 104.998 59.9369C105.066 59.8697 105.157 59.832 105.252 59.832H117.424C117.519 59.832 117.61 59.8697 117.677 59.9369C117.744 60.004 117.782 60.0951 117.782 60.19C117.782 60.285 117.744 60.376 117.677 60.4432C117.61 60.5103 117.519 60.548 117.424 60.548Z" fill="#EF4050"/>
<path d="M132.56 60.548H119.414C119.319 60.548 119.228 60.5103 119.161 60.4432C119.094 60.376 119.056 60.285 119.056 60.19C119.056 60.0951 119.094 60.004 119.161 59.9369C119.228 59.8697 119.319 59.832 119.414 59.832H132.56C132.655 59.832 132.746 59.8697 132.813 59.9369C132.88 60.004 132.918 60.0951 132.918 60.19C132.918 60.285 132.88 60.376 132.813 60.4432C132.746 60.5103 132.655 60.548 132.56 60.548Z" fill="#263238"/>
<path d="M103.848 62.8859H96.4268C96.3319 62.8859 96.2408 62.8482 96.1737 62.7811C96.1066 62.7139 96.0688 62.6229 96.0688 62.5279C96.0688 62.433 96.1066 62.3419 96.1737 62.2748C96.2408 62.2076 96.3319 62.1699 96.4268 62.1699H103.848C103.943 62.1699 104.034 62.2076 104.101 62.2748C104.168 62.3419 104.206 62.433 104.206 62.5279C104.206 62.6229 104.168 62.7139 104.101 62.7811C104.034 62.8482 103.943 62.8859 103.848 62.8859Z" fill="#263238"/>
<path d="M114.359 62.8859H106.258C106.163 62.8859 106.072 62.8482 106.005 62.7811C105.938 62.7139 105.9 62.6229 105.9 62.5279C105.9 62.433 105.938 62.3419 106.005 62.2748C106.072 62.2076 106.163 62.1699 106.258 62.1699H114.359C114.454 62.1699 114.545 62.2076 114.613 62.2748C114.68 62.3419 114.717 62.433 114.717 62.5279C114.717 62.6229 114.68 62.7139 114.613 62.7811C114.545 62.8482 114.454 62.8859 114.359 62.8859Z" fill="#263238"/>
<g opacity="0.2">
<path d="M129.338 62.8859H116.199C116.104 62.8859 116.013 62.8482 115.946 62.7811C115.879 62.7139 115.841 62.6229 115.841 62.5279C115.841 62.433 115.879 62.3419 115.946 62.2748C116.013 62.2076 116.104 62.1699 116.199 62.1699H129.338C129.433 62.1699 129.524 62.2076 129.591 62.2748C129.658 62.3419 129.696 62.433 129.696 62.5279C129.696 62.6229 129.658 62.7139 129.591 62.7811C129.524 62.8482 129.433 62.8859 129.338 62.8859Z" fill="#263238"/>
</g>
<g opacity="0.2">
<path d="M100.322 65.2238H90.3375C90.2425 65.2238 90.1515 65.1861 90.0843 65.119C90.0172 65.0518 89.9795 64.9608 89.9795 64.8658C89.9795 64.7709 90.0172 64.6798 90.0843 64.6127C90.1515 64.5455 90.2425 64.5078 90.3375 64.5078H100.322C100.417 64.5078 100.508 64.5455 100.575 64.6127C100.642 64.6798 100.68 64.7709 100.68 64.8658C100.68 64.9608 100.642 65.0518 100.575 65.119C100.508 65.1861 100.417 65.2238 100.322 65.2238Z" fill="#263238"/>
</g>
<path d="M101.572 67.5578H90.3375C90.2425 67.5578 90.1515 67.5201 90.0843 67.4529C90.0172 67.3858 89.9795 67.2947 89.9795 67.1998C89.9795 67.1048 90.0172 67.0138 90.0843 66.9467C90.1515 66.8795 90.2425 66.8418 90.3375 66.8418H101.572C101.666 66.8418 101.758 66.8795 101.825 66.9467C101.892 67.0138 101.93 67.1048 101.93 67.1998C101.93 67.2947 101.892 67.3858 101.825 67.4529C101.758 67.5201 101.666 67.5578 101.572 67.5578Z" fill="#EF4050"/>
<path d="M120.338 67.5578H103.412C103.317 67.5578 103.226 67.5201 103.159 67.4529C103.091 67.3858 103.054 67.2947 103.054 67.1998C103.054 67.1048 103.091 67.0138 103.159 66.9467C103.226 66.8795 103.317 66.8418 103.412 66.8418H120.338C120.433 66.8418 120.524 66.8795 120.591 66.9467C120.658 67.0138 120.696 67.1048 120.696 67.1998C120.696 67.2947 120.658 67.3858 120.591 67.4529C120.524 67.5201 120.433 67.5578 120.338 67.5578Z" fill="#263238"/>
<path d="M132.56 67.5578H122.389C122.294 67.5578 122.203 67.5201 122.136 67.4529C122.069 67.3858 122.031 67.2947 122.031 67.1998C122.031 67.1048 122.069 67.0138 122.136 66.9467C122.203 66.8795 122.294 66.8418 122.389 66.8418H132.56C132.655 66.8418 132.746 66.8795 132.813 66.9467C132.88 67.0138 132.918 67.1048 132.918 67.1998C132.918 67.2947 132.88 67.3858 132.813 67.4529C132.746 67.5201 132.655 67.5578 132.56 67.5578Z" fill="#263238"/>
<g opacity="0.2">
<path d="M100.351 69.8957H93.9068C93.8119 69.8957 93.7208 69.858 93.6537 69.7908C93.5866 69.7237 93.5488 69.6326 93.5488 69.5377C93.5488 69.4427 93.5866 69.3517 93.6537 69.2845C93.7208 69.2174 93.8119 69.1797 93.9068 69.1797H100.351C100.446 69.1797 100.537 69.2174 100.604 69.2845C100.671 69.3517 100.709 69.4427 100.709 69.5377C100.709 69.6326 100.671 69.7237 100.604 69.7908C100.537 69.858 100.446 69.8957 100.351 69.8957Z" fill="#263238"/>
</g>
<g opacity="0.2">
<path d="M114.882 69.8957H102.546C102.451 69.8957 102.359 69.858 102.292 69.7908C102.225 69.7237 102.188 69.6326 102.188 69.5377C102.188 69.4427 102.225 69.3517 102.292 69.2845C102.359 69.2174 102.451 69.1797 102.546 69.1797H114.882C114.977 69.1797 115.068 69.2174 115.135 69.2845C115.202 69.3517 115.24 69.4427 115.24 69.5377C115.24 69.6326 115.202 69.7237 115.135 69.7908C115.068 69.858 114.977 69.8957 114.882 69.8957Z" fill="#263238"/>
</g>
<path d="M129.338 69.8957H117.291C117.196 69.8957 117.105 69.858 117.038 69.7908C116.971 69.7237 116.933 69.6326 116.933 69.5377C116.933 69.4427 116.971 69.3517 117.038 69.2845C117.105 69.2174 117.196 69.1797 117.291 69.1797H129.338C129.433 69.1797 129.524 69.2174 129.591 69.2845C129.658 69.3517 129.696 69.4427 129.696 69.5377C129.696 69.6326 129.658 69.7237 129.591 69.7908C129.524 69.858 129.433 69.8957 129.338 69.8957Z" fill="#263238"/>
<path d="M105.084 72.2336H97.5011C97.4061 72.2336 97.3151 72.1959 97.2479 72.1287C97.1808 72.0616 97.1431 71.9705 97.1431 71.8756C97.1431 71.7806 97.1808 71.6896 97.2479 71.6224C97.3151 71.5553 97.4061 71.5176 97.5011 71.5176H105.084C105.178 71.5176 105.27 71.5553 105.337 71.6224C105.404 71.6896 105.442 71.7806 105.442 71.8756C105.442 71.9705 105.404 72.0616 105.337 72.1287C105.27 72.1959 105.178 72.2336 105.084 72.2336Z" fill="#263238"/>
<g opacity="0.2">
<path d="M113.862 72.2336H106.641C106.546 72.2336 106.455 72.1959 106.388 72.1287C106.32 72.0616 106.283 71.9705 106.283 71.8756C106.283 71.7806 106.32 71.6896 106.388 71.6224C106.455 71.5553 106.546 71.5176 106.641 71.5176H113.862C113.957 71.5176 114.048 71.5553 114.115 71.6224C114.182 71.6896 114.22 71.7806 114.22 71.8756C114.22 71.9705 114.182 72.0616 114.115 72.1287C114.048 72.1959 113.957 72.2336 113.862 72.2336Z" fill="#263238"/>
</g>
<path d="M129.338 72.2336H116.128C116.033 72.2336 115.942 72.1959 115.875 72.1287C115.808 72.0616 115.77 71.9705 115.77 71.8756C115.77 71.7806 115.808 71.6896 115.875 71.6224C115.942 71.5553 116.033 71.5176 116.128 71.5176H129.338C129.433 71.5176 129.524 71.5553 129.591 71.6224C129.659 71.6896 129.696 71.7806 129.696 71.8756C129.696 71.9705 129.659 72.0616 129.591 72.1287C129.524 72.1959 129.433 72.2336 129.338 72.2336Z" fill="#EF4050"/>
<g opacity="0.2">
<path d="M106.77 74.5705H97.5011C97.4061 74.5705 97.3151 74.5328 97.2479 74.4656C97.1808 74.3985 97.1431 74.3074 97.1431 74.2125C97.1431 74.1175 97.1808 74.0265 97.2479 73.9594C97.3151 73.8922 97.4061 73.8545 97.5011 73.8545H106.77C106.865 73.8545 106.956 73.8922 107.023 73.9594C107.09 74.0265 107.128 74.1175 107.128 74.2125C107.128 74.3074 107.09 74.3985 107.023 74.4656C106.956 74.5328 106.865 74.5705 106.77 74.5705Z" fill="#263238"/>
</g>
<path opacity="0.4" d="M134.25 47.0689C134.25 47.1908 134.286 47.31 134.354 47.4114C134.422 47.5127 134.518 47.5916 134.631 47.6381C134.744 47.6846 134.868 47.6966 134.987 47.6725C135.107 47.6485 135.216 47.5895 135.302 47.503C135.388 47.4165 135.447 47.3065 135.47 47.1868C135.493 47.0671 135.481 46.9432 135.434 46.8308C135.386 46.7183 135.307 46.6224 135.205 46.5552C135.104 46.4879 134.984 46.4524 134.862 46.4531C134.781 46.4531 134.702 46.4691 134.627 46.5001C134.553 46.5311 134.485 46.5765 134.428 46.6337C134.371 46.6909 134.326 46.7588 134.296 46.8335C134.265 46.9082 134.25 46.9882 134.25 47.0689Z" fill="white"/>
<path opacity="0.4" d="M132.728 47.6814C133.066 47.6814 133.341 47.4073 133.341 47.0692C133.341 46.7311 133.066 46.457 132.728 46.457C132.39 46.457 132.116 46.7311 132.116 47.0692C132.116 47.4073 132.39 47.6814 132.728 47.6814Z" fill="white"/>
<path opacity="0.4" d="M130.577 47.6814C130.915 47.6814 131.189 47.4073 131.189 47.0692C131.189 46.7311 130.915 46.457 130.577 46.457C130.238 46.457 129.964 46.7311 129.964 47.0692C129.964 47.4073 130.238 47.6814 130.577 47.6814Z" fill="white"/>
<path d="M40.5472 47.7383H30.2655C29.8496 47.7378 29.4377 47.8193 29.0533 47.9782C28.6689 48.137 28.3196 48.37 28.0254 48.6639C27.7311 48.9579 27.4977 49.3069 27.3384 49.6911C27.1791 50.0753 27.0972 50.4871 27.0972 50.903V59.853C27.0967 60.2689 27.1782 60.6808 27.337 61.0652C27.4959 61.4496 27.7289 61.7989 28.0228 62.0931C28.3167 62.3874 28.6658 62.6208 29.05 62.7801C29.4342 62.9393 29.846 63.0213 30.2619 63.0213H37.5543L39.7023 65.8459V63.0213H40.5436C41.3839 63.0213 42.1898 62.6875 42.784 62.0933C43.3781 61.4992 43.7119 60.6933 43.7119 59.853V50.903C43.7119 50.0637 43.3785 49.2587 42.785 48.6652C42.1915 48.0717 41.3866 47.7383 40.5472 47.7383Z" fill="#EF4050"/>
<path opacity="0.7" d="M40.5472 47.7383H30.2655C29.8496 47.7378 29.4377 47.8193 29.0533 47.9782C28.6689 48.137 28.3196 48.37 28.0254 48.6639C27.7311 48.9579 27.4977 49.3069 27.3384 49.6911C27.1791 50.0753 27.0972 50.4871 27.0972 50.903V59.853C27.0967 60.2689 27.1782 60.6808 27.337 61.0652C27.4959 61.4496 27.7289 61.7989 28.0228 62.0931C28.3167 62.3874 28.6658 62.6208 29.05 62.7801C29.4342 62.9393 29.846 63.0213 30.2619 63.0213H37.5543L39.7023 65.8459V63.0213H40.5436C41.3839 63.0213 42.1898 62.6875 42.784 62.0933C43.3781 61.4992 43.7119 60.6933 43.7119 59.853V50.903C43.7119 50.0637 43.3785 49.2587 42.785 48.6652C42.1915 48.0717 41.3866 47.7383 40.5472 47.7383Z" fill="white"/>
<path d="M34.8695 57.6118C34.8015 57.6115 34.7344 57.5966 34.6727 57.5682C34.6109 57.5398 34.556 57.4985 34.5115 57.4471L32.5103 55.1058C32.4703 55.0588 32.44 55.0043 32.4211 54.9456C32.4022 54.8869 32.395 54.825 32.4 54.7635C32.405 54.702 32.422 54.6421 32.4502 54.5872C32.4783 54.5323 32.517 54.4834 32.564 54.4435C32.611 54.4035 32.6654 54.3732 32.7242 54.3543C32.7829 54.3354 32.8448 54.3282 32.9063 54.3332C32.9678 54.3382 33.0277 54.3552 33.0826 54.3833C33.1375 54.4115 33.1863 54.4502 33.2263 54.4972L34.8695 56.4375L37.5867 53.237C37.6684 53.147 37.7818 53.0921 37.9031 53.084C38.0244 53.076 38.1441 53.1153 38.2369 53.1938C38.3297 53.2722 38.3885 53.3837 38.4008 53.5046C38.4131 53.6255 38.3779 53.7465 38.3027 53.842L35.2275 57.4543C35.1827 57.5047 35.1275 57.5449 35.0657 57.5721C35.0039 57.5993 34.937 57.6128 34.8695 57.6118Z" fill="white"/>
<path d="M39.0141 58.9477C41.0077 56.9541 41.0077 53.7217 39.0141 51.7281C37.0204 49.7344 33.7881 49.7344 31.7944 51.7281C29.8007 53.7217 29.8007 56.9541 31.7944 58.9477C33.7881 60.9414 37.0204 60.9414 39.0141 58.9477Z" fill="#EF4050"/>
<path d="M73.2896 111.126L80.9758 110.75L80.2276 117.434C80.2276 117.434 74.8934 118.451 72.5127 114.656L73.2896 111.126Z" fill="#EBB376"/>
<path d="M85.9305 113.081L84.1799 117.928L80.2275 117.434L80.9758 110.75L85.9305 113.081Z" fill="#EBB376"/>
<path d="M65.911 121.973C68.8378 120.444 71.5054 118.464 73.8157 116.105L73.2894 111.125C66.0256 112.199 61.8334 113.735 61.8334 113.735C61.8334 113.735 64.5256 104.087 62.0625 100.571L55.2999 101.796C55.2999 101.796 48.1148 116.731 52.9478 121.973H65.911Z" fill="#782028"/>
<path opacity="0.7" d="M65.9006 121.973C68.8289 120.445 71.4988 118.466 73.8124 116.109L73.2897 111.122C66.2586 112.153 62.1022 113.628 61.8337 113.725C61.9232 113.367 64.4686 104.019 62.0556 100.568L55.293 101.793C53.9027 104.792 52.7987 107.915 51.9958 111.122C51.0292 115.2 50.7464 119.592 52.9445 121.973H65.9006Z" fill="white"/>
<path opacity="0.2" d="M60.3407 121.973C62.7285 106.844 60.6127 102.999 60.6127 102.999L52.0207 111.115C51.0541 115.193 50.7713 119.585 52.9695 121.966L60.3407 121.973Z" fill="black"/>
<path d="M58.8477 121.973C60.4587 114.326 62.2666 102.355 62.0697 100.572C61.7833 97.9798 47.6853 86.8747 35.4488 94.9583C32.9428 96.6087 31.6648 114.412 31.228 121.973H58.8477Z" fill="#782028"/>
<path opacity="0.7" d="M58.8477 121.973C60.4587 114.326 62.2666 102.351 62.0697 100.568C61.7833 97.9794 47.6817 86.8742 35.4453 94.9615C34.5395 95.5665 33.7949 98.298 33.1791 101.907C32.3629 106.818 31.7972 113.341 31.4607 118.26C31.3676 119.653 31.2889 120.913 31.228 121.973H58.8477Z" fill="white"/>
<path d="M52.8085 62.1047C48.5662 60.3898 38.5637 66.5439 37.6866 77.5166C36.8095 88.4893 42.3728 85.4499 42.3728 85.4499C42.3728 85.4499 43.3644 89.6349 47.417 88.3425C47.417 88.3425 50.7643 92.1337 53.8789 90.5907C53.8789 90.5907 57.756 94.629 59.836 92.4989C59.836 92.4989 62.0986 95.0801 64.1642 93.1254C66.2299 91.1707 72.1333 71.2158 62.8719 66.6011C53.6104 61.9865 52.8085 62.1047 52.8085 62.1047Z" fill="#263238"/>
<path d="M52.8155 107.015L52.4074 106.98C52.88 101.695 51.7165 99.3577 51.6914 99.3362L52.0494 99.1465C52.1174 99.2288 53.2988 101.581 52.8155 107.015Z" fill="#263238"/>
<path d="M54.7345 107.062C51.9242 100.443 55.0925 98.8997 55.2214 98.8281L55.3896 99.1861C55.361 99.1861 52.4684 100.65 55.1104 106.88L54.7345 107.062Z" fill="#263238"/>
<path d="M51.9885 100.407C51.9885 100.407 46.5648 96.1114 38.1446 93.6913L35.4417 94.9586C35.4417 94.9586 30.9094 89.3488 38.4632 87.5122C46.017 85.6757 56.2916 90.7342 58.8692 95.066C61.4468 99.3978 54.3871 100.794 54.3871 100.794C54.3871 100.794 53.7391 99.9134 51.9885 100.407Z" fill="#782028"/>
<path opacity="0.6" d="M51.9885 100.407C51.9885 100.407 46.5648 96.1114 38.1446 93.6913L35.4417 94.9586C35.4417 94.9586 30.9094 89.3488 38.4632 87.5122C46.017 85.6757 56.2916 90.7342 58.8692 95.066C61.4468 99.3978 54.3871 100.794 54.3871 100.794C54.3871 100.794 53.7391 99.9134 51.9885 100.407Z" fill="white"/>
<path d="M55.2609 106.984C55.2609 107.055 55.2399 107.124 55.2006 107.183C55.1613 107.242 55.1053 107.288 55.0399 107.315C54.9745 107.342 54.9025 107.349 54.8331 107.335C54.7636 107.321 54.6998 107.287 54.6498 107.237C54.5997 107.187 54.5656 107.123 54.5518 107.054C54.538 106.984 54.5451 106.912 54.5722 106.847C54.5993 106.782 54.6452 106.726 54.704 106.686C54.7629 106.647 54.8321 106.626 54.9029 106.626C54.9979 106.626 55.0889 106.664 55.1561 106.731C55.2232 106.798 55.2609 106.889 55.2609 106.984Z" fill="white"/>
<path d="M52.9372 106.984C52.9372 107.055 52.9162 107.124 52.8769 107.183C52.8375 107.242 52.7816 107.288 52.7162 107.315C52.6508 107.342 52.5788 107.349 52.5093 107.335C52.4399 107.321 52.3761 107.287 52.326 107.237C52.276 107.187 52.2419 107.123 52.2281 107.054C52.2143 106.984 52.2213 106.912 52.2484 106.847C52.2755 106.782 52.3214 106.726 52.3803 106.686C52.4392 106.647 52.5084 106.626 52.5792 106.626C52.6741 106.626 52.7652 106.664 52.8323 106.731C52.8995 106.798 52.9372 106.889 52.9372 106.984Z" fill="white"/>
<path d="M49.1066 80.166C48.7773 84.0074 47.5995 90.8452 44.4741 92.338C44.4741 92.338 47.9682 93.054 53.4241 99.967C56.528 97.7904 55.3537 96.3046 55.3537 96.3046C51.7236 93.924 52.6652 90.9883 54.133 88.4286L49.1066 80.166Z" fill="#EBB376"/>
<path opacity="0.2" d="M51.1509 83.5342L54.1259 88.4388C53.7706 89.0308 53.4698 89.6539 53.2273 90.3004C51.7953 89.5343 50.2272 87.107 50.5244 85.4459C50.617 84.7763 50.8292 84.1287 51.1509 83.5342Z" fill="black"/>
<path d="M48.6879 72.0432C47.689 78.0791 47.1377 80.6065 49.3752 84.4908C52.7368 90.337 60.1868 90.6126 62.9255 85.0851C65.3886 80.1089 66.6093 71.073 61.4685 67.0849C56.3956 63.154 49.6795 66.0037 48.6879 72.0432Z" fill="#EBB376"/>
<path d="M61.0497 63.7224C64.9627 65.8919 68.6894 72.6724 63.1225 70.979C62.2812 72.6079 59.2848 71.1151 57.5413 69.1604C57.2478 70.5172 54.0401 71.8776 51.6773 69.7762C52.8193 71.423 50.8754 75.5793 48.8527 74.8633C46.83 74.1473 42.2905 73.2058 46.3109 66.7976C50.3312 60.3894 56.8719 61.399 61.0497 63.7224Z" fill="#263238"/>
<path d="M59.6248 77.7383C59.6248 77.7383 59.9828 80.1333 60.663 81.4328C59.9005 81.8732 58.873 81.2861 58.873 81.2861L59.6248 77.7383Z" fill="#D58745"/>
<path d="M55.7223 82.3603C55.9764 82.4844 56.2412 82.585 56.5135 82.661C56.5319 82.6664 56.5512 82.6677 56.5701 82.6651C56.5891 82.6625 56.6072 82.6559 56.6234 82.6457C56.6396 82.6356 56.6535 82.6222 56.6642 82.6063C56.6749 82.5904 56.6821 82.5725 56.6854 82.5537C56.6951 82.5143 56.689 82.4726 56.6682 82.4377C56.6474 82.4029 56.6137 82.3776 56.5744 82.3675C55.9584 82.1949 55.389 81.8862 54.9082 81.4643C54.4274 81.0423 54.0474 80.5179 53.7963 79.9295C53.791 79.9105 53.7819 79.8928 53.7696 79.8773C53.7572 79.8619 53.7419 79.8492 53.7245 79.8398C53.7072 79.8305 53.6881 79.8247 53.6684 79.8229C53.6488 79.8211 53.6289 79.8232 53.6101 79.8293C53.5739 79.8444 53.545 79.873 53.5296 79.9092C53.5142 79.9453 53.5136 79.986 53.5278 80.0226C53.9469 81.0452 54.7282 81.8775 55.7223 82.3603Z" fill="#263238"/>
<path d="M45.6414 76.3813C45.9789 77.6363 46.8003 78.7061 47.9254 79.3563C49.3825 80.1547 50.4314 78.7871 50.324 77.0866C50.2131 75.5508 49.3181 73.2882 47.7214 73.1987C46.1247 73.1092 45.2082 74.7954 45.6414 76.3813Z" fill="#EBB376"/>
<path d="M55.3106 72.2078C55.3465 72.2245 55.3856 72.2331 55.4252 72.2331C55.4648 72.2331 55.5039 72.2245 55.5398 72.2078C55.8575 72.0315 56.2137 71.936 56.5771 71.9298C56.9404 71.9235 57.2997 72.0067 57.6233 72.172C57.6554 72.1926 57.6916 72.2063 57.7293 72.212C57.767 72.2177 57.8056 72.2155 57.8424 72.2053C57.8792 72.1952 57.9134 72.1774 57.9429 72.1532C57.9724 72.129 57.9965 72.0988 58.0135 72.0646C58.0489 71.9925 58.0565 71.9099 58.0347 71.8326C58.0129 71.7553 57.9633 71.6888 57.8954 71.6458C57.4915 71.4246 57.0384 71.3086 56.5779 71.3086C56.1175 71.3086 55.6644 71.4246 55.2605 71.6458C55.1928 71.6862 55.1431 71.7511 55.1218 71.827C55.1005 71.9029 55.1091 71.9842 55.1459 72.0539C55.1808 72.1232 55.2392 72.1778 55.3106 72.2078Z" fill="#263238"/>
<path d="M64.9304 74.563C64.9627 74.5815 64.9985 74.5929 65.0355 74.5966C65.0725 74.6003 65.1099 74.5962 65.1452 74.5845C65.1824 74.5721 65.2168 74.5523 65.2462 74.5263C65.2757 74.5003 65.2996 74.4687 65.3167 74.4334C65.3337 74.398 65.3434 74.3595 65.3454 74.3203C65.3473 74.2811 65.3413 74.2419 65.3278 74.205C65.1971 73.7399 64.9607 73.3111 64.6372 72.9522C64.3137 72.5933 63.9117 72.3139 63.4626 72.1358C63.4257 72.1227 63.3865 72.1177 63.3475 72.1212C63.3086 72.1246 63.2708 72.1365 63.2368 72.1558C63.2029 72.1752 63.1735 72.2016 63.1506 72.2334C63.1278 72.2652 63.1121 72.3015 63.1046 72.3398C63.0859 72.4176 63.0969 72.4995 63.1352 72.5696C63.1736 72.6397 63.2367 72.6931 63.3122 72.7193C63.6662 72.8656 63.9818 73.0911 64.2351 73.3785C64.4883 73.6658 64.6722 74.0073 64.7729 74.3769C64.7854 74.4168 64.8058 74.4538 64.8329 74.4858C64.8599 74.5178 64.8931 74.544 64.9304 74.563Z" fill="#263238"/>
<path d="M57.2369 76.1558C57.0614 76.6355 56.6605 76.9255 56.3419 76.8074C56.0232 76.6892 55.9087 76.2095 56.0841 75.7334C56.2595 75.2572 56.6605 74.9637 56.9755 75.0818C57.2906 75.2 57.4087 75.6797 57.2369 76.1558Z" fill="#263238"/>
<path d="M56.8359 75.0573L58.0245 75.0322C58.0245 75.0322 57.1868 75.7124 56.8359 75.0573Z" fill="#263238"/>
<path d="M63.2475 78.0646C63.0721 78.5408 62.6711 78.8307 62.3561 78.7162C62.041 78.6016 61.9193 78.1147 62.0947 77.6422C62.2702 77.1696 62.6711 76.8761 62.9897 76.9906C63.3084 77.1052 63.4229 77.5849 63.2475 78.0646Z" fill="#263238"/>
<path d="M62.8506 76.9616L64.0356 76.9365C64.0356 76.9365 63.1978 77.6203 62.8506 76.9616Z" fill="#263238"/>
<path d="M56.6712 79.539C56.3013 79.5402 55.9354 79.4633 55.5972 79.3135C55.2394 79.1493 54.9215 78.9093 54.6656 78.6101C54.4097 78.3109 54.2219 77.9597 54.1151 77.5808C53.8843 76.7638 53.9474 75.8918 54.2935 75.1166C54.6396 74.3413 55.2466 73.7121 56.0089 73.3385C56.3621 73.1619 56.7499 73.0659 57.1446 73.0573C57.5394 73.0486 57.9311 73.1276 58.2916 73.2885C58.6521 73.4495 58.9725 73.6883 59.2296 73.9879C59.4867 74.2875 59.6743 74.6403 59.7787 75.0211C60.0167 75.8373 59.9519 76.712 59.5961 77.4841C59.2602 78.2688 58.6509 78.9049 57.8813 79.2741C57.5021 79.4496 57.0891 79.5401 56.6712 79.539ZM57.2333 73.4709C56.8769 73.4804 56.5266 73.5659 56.2058 73.7215C55.5335 74.0541 54.9983 74.6108 54.6924 75.2957C54.3866 75.9806 54.3293 76.7508 54.5304 77.4734C54.6166 77.7987 54.7744 78.1006 54.9924 78.3569C55.2105 78.6133 55.4831 78.8176 55.7903 78.9549C56.0975 79.0922 56.4316 79.159 56.768 79.1505C57.1044 79.1419 57.4346 79.0582 57.7345 78.9054C58.4121 78.581 58.9498 78.0229 59.2488 77.3338C59.5636 76.6502 59.6208 75.8759 59.4099 75.1535C59.3201 74.8302 59.1608 74.5304 58.9432 74.2751C58.7255 74.0197 58.4547 73.8149 58.1498 73.675C57.8631 73.5402 57.5501 73.4705 57.2333 73.4709Z" fill="#263238"/>
<path d="M62.6286 81.3648C62.2585 81.3681 61.8921 81.2911 61.5546 81.1393C61.1966 80.9747 60.8785 80.7346 60.6221 80.4355C60.3656 80.1365 60.1769 79.7854 60.0689 79.4066C59.8398 78.5892 59.9042 77.7174 60.2507 76.9424C60.5973 76.1675 61.2043 75.5384 61.9663 75.1643C62.3191 74.9871 62.7068 74.8905 63.1015 74.8815C63.4962 74.8726 63.8879 74.9515 64.2484 75.1125C64.6088 75.2736 64.9289 75.5127 65.1856 75.8127C65.4423 76.1126 65.6291 76.4659 65.7324 76.8469C65.9736 77.6624 65.91 78.5378 65.5534 79.3099C65.3118 79.8951 64.9082 80.3992 64.3902 80.7632C63.8721 81.1271 63.261 81.3359 62.6286 81.3648ZM63.1978 75.2788C62.8364 75.2813 62.4798 75.3619 62.1524 75.5151C61.4753 75.8419 60.938 76.4009 60.6381 77.0903C60.3214 77.7721 60.2641 78.546 60.477 79.2669C60.5668 79.5907 60.726 79.891 60.9437 80.147C61.1613 80.4029 61.4321 80.6084 61.7372 80.7491C62.9902 81.3111 64.5439 80.5808 65.1954 79.1273C65.5086 78.4434 65.5658 77.6697 65.3565 76.9471C65.2661 76.6241 65.1065 76.3246 64.889 76.0693C64.6714 75.8141 64.401 75.6091 64.0964 75.4686C63.8119 75.35 63.506 75.2915 63.1978 75.2967V75.2788Z" fill="#263238"/>
<path d="M60.0723 77.6315C60.0644 77.606 60.051 77.5825 60.0331 77.5627C60.0151 77.5429 59.9931 77.5273 59.9685 77.517C59.8112 77.4895 59.6493 77.5134 59.5066 77.585L59.3276 77.227C59.5708 77.1026 59.8516 77.0733 60.1152 77.1446C60.1978 77.1738 60.2729 77.2211 60.3348 77.2831C60.3968 77.345 60.4441 77.42 60.4732 77.5026L60.0723 77.6315Z" fill="#263238"/>
<path d="M50.2816 73.8006L50.1592 74.1924L55.0051 75.7067L55.1275 75.3149L50.2816 73.8006Z" fill="#263238"/>
<path opacity="0.2" d="M49.1461 111.477C49.1461 111.477 39.7272 118.694 31.4609 118.279C31.7975 113.36 32.3631 106.823 33.1793 101.925C34.0242 100.994 34.5791 100.429 34.5791 100.429L39.5911 104.177L38.3703 105.709C38.3703 105.709 45.9564 105.323 48.5984 105.709L49.1461 111.477Z" fill="black"/>
<path d="M50.1201 105.691L57.6595 104.151L57.9281 110.875C57.9281 110.875 52.8122 112.686 49.8838 109.296L50.1201 105.691Z" fill="#EBB376"/>
<path d="M62.9075 105.713L61.9122 110.768L57.9277 110.879L57.6592 104.155L62.9075 105.713Z" fill="#EBB376"/>
<path d="M50.1196 105.691L50.4884 110.879L48.6125 111.72L47.8105 105.691H50.1196Z" fill="#782028"/>
<path opacity="0.6" d="M50.1196 105.691L50.4884 110.879L48.6125 111.72L47.8105 105.691H50.1196Z" fill="white"/>
<path d="M38.1448 93.6914C36.1217 94.0486 34.2897 95.1085 32.9717 96.6843C30.6984 99.355 22.6863 107.288 24.4656 113.764C26.2448 120.241 43.3787 115.422 48.6127 111.72L47.8108 105.692L35.9431 106.562L39.6018 104.152C42.1114 97.1712 38.1448 93.6914 38.1448 93.6914Z" fill="#782028"/>
<path opacity="0.7" d="M38.1448 93.6914C36.1217 94.0486 34.2897 95.1085 32.9717 96.6843C30.6984 99.355 22.6863 107.288 24.4656 113.764C26.2448 120.241 43.3787 115.422 48.6127 111.72L47.8108 105.692L35.9431 106.562L39.6018 104.152C42.1114 97.1712 38.1448 93.6914 38.1448 93.6914Z" fill="white"/>
<path d="M72.5161 111.24L74.6749 110.879V116.664L72.9636 116.943L72.5161 111.24Z" fill="#782028"/>
<path opacity="0.6" d="M72.5161 111.24L74.6749 110.879V116.664L72.9636 116.943L72.5161 111.24Z" fill="white"/>
<path d="M68.1521 116.606C68.146 116.289 68.1616 115.972 68.1987 115.658L68.2631 115.181L67.8013 115.453L67.5256 115.618C67.435 115.659 67.3417 115.694 67.2464 115.722C67.0833 115.774 66.9083 115.774 66.7452 115.722C66.5876 115.664 66.4489 115.563 66.3442 115.432C66.2232 115.287 66.1276 115.122 66.0614 114.945L65.6569 113.817L65.3705 115.013C65.3418 115.131 65.3239 115.253 65.3024 115.371C65.281 115.489 65.2308 115.593 65.1986 115.704C65.1301 115.883 65.0152 116.039 64.8657 116.159C64.6986 116.245 64.5044 116.261 64.3251 116.205C64.0994 116.146 63.8844 116.052 63.6879 115.926L63.0649 115.536L63.3155 116.169C63.424 116.439 63.5102 116.717 63.5733 117C63.6047 117.141 63.6238 117.285 63.6306 117.43C63.6463 117.577 63.6137 117.725 63.5375 117.852C63.6632 117.751 63.7493 117.609 63.7809 117.451C63.8219 117.297 63.8436 117.138 63.8454 116.979C63.8526 116.853 63.8526 116.728 63.8454 116.603C63.9495 116.662 64.0571 116.714 64.1676 116.76C64.3301 116.827 64.5047 116.859 64.6804 116.855C64.856 116.85 65.0288 116.81 65.1879 116.735C65.4906 116.565 65.7266 116.298 65.8573 115.976V115.93C66.051 116.15 66.3105 116.302 66.5975 116.364C66.8845 116.425 67.1836 116.392 67.4504 116.27C67.5556 116.222 67.6573 116.167 67.7547 116.105C67.7547 116.105 67.7547 116.13 67.7547 116.144C67.7804 116.313 67.815 116.48 67.8586 116.646C67.9022 116.812 67.9621 116.974 68.0376 117.129C68.1091 117.285 68.2157 117.422 68.349 117.53C68.2687 117.39 68.2164 117.235 68.1951 117.075C68.1703 116.92 68.1559 116.763 68.1521 116.606Z" fill="#782028"/>
<path d="M80.9582 108.53C80.6793 108.557 80.3978 108.527 80.1312 108.441C79.8565 108.359 79.5948 108.238 79.3543 108.083C79.126 107.913 78.9306 107.703 78.7779 107.463C78.6164 107.225 78.4876 106.966 78.3949 106.694L78.1586 105.978L77.7576 106.611C77.5862 106.877 77.379 107.118 77.1419 107.327C76.9493 107.518 76.6958 107.634 76.4259 107.657H76.34L76.2326 107.635C76.1574 107.635 76.0858 107.599 76.0106 107.581C75.861 107.532 75.7161 107.47 75.5774 107.395C75.2972 107.238 75.0384 107.046 74.8077 106.822L74.1848 106.225L74.3137 107.044C74.3857 107.482 74.4133 107.926 74.396 108.369C74.389 108.577 74.3467 108.783 74.2707 108.978C74.237 109.063 74.1754 109.134 74.0961 109.179C74.0168 109.225 73.9244 109.242 73.834 109.228H73.6729L73.723 109.361C73.828 109.63 73.9354 109.899 74.0452 110.166C74.013 109.926 73.9736 109.686 73.9306 109.45H73.9986C74.07 109.445 74.1407 109.433 74.2099 109.414C74.2756 109.38 74.339 109.342 74.3996 109.3C74.4461 109.25 74.4963 109.196 74.5392 109.142C74.6767 108.924 74.768 108.681 74.8077 108.426C74.8528 108.19 74.8792 107.951 74.8865 107.71C75.0009 107.805 75.1204 107.893 75.2445 107.975C75.4126 108.079 75.59 108.166 75.7743 108.237C75.9712 108.318 76.1807 108.366 76.3937 108.376C76.8365 108.37 77.2618 108.202 77.5894 107.904C77.7299 107.786 77.8604 107.656 77.9796 107.517C78.0497 107.64 78.1262 107.76 78.2087 107.875C78.4229 108.171 78.6899 108.424 78.9963 108.623C79.3019 108.809 79.6374 108.94 79.988 109.01C80.2131 109.054 80.4426 109.07 80.6718 109.06C80.6431 109.132 80.6109 109.203 80.5858 109.278C80.523 109.485 80.4739 109.695 80.4391 109.908C80.401 110.122 80.3914 110.34 80.4104 110.556C80.4214 110.772 80.4867 110.981 80.6002 111.165C80.5385 110.97 80.5226 110.763 80.5536 110.56C80.5806 110.359 80.6273 110.161 80.6932 109.969C80.8307 109.595 81.0046 109.235 81.2123 108.895L81.4379 108.512L80.9582 108.53Z" fill="#782028"/>
<path d="M152.579 129.688L27.0288 129.688C26.6072 129.688 26.2029 129.521 25.9049 129.223C25.6068 128.925 25.4393 128.521 25.4393 128.099V124.233L154.169 124.233V128.099C154.169 128.521 154.001 128.925 153.703 129.223C153.405 129.521 153.001 129.688 152.579 129.688Z" fill="#EF4050"/>
<path opacity="0.2" d="M25.4357 126.957L154.169 126.957V124.229L25.4357 124.229V126.957Z" fill="black"/>
<path d="M22.7401 124.941H156.868C157.276 124.941 157.667 124.78 157.956 124.492C158.244 124.204 158.407 123.813 158.408 123.406C158.408 122.997 158.246 122.606 157.957 122.317C157.668 122.028 157.277 121.866 156.868 121.866H22.7401C22.3318 121.866 21.9403 122.028 21.6516 122.317C21.3629 122.606 21.2007 122.997 21.2007 123.406C21.2016 123.813 21.3642 124.204 21.6528 124.492C21.9414 124.78 22.3324 124.941 22.7401 124.941Z" fill="#EF4050"/>
<path d="M147.779 103.079L143.862 120.843C143.791 121.127 143.627 121.38 143.398 121.563C143.168 121.745 142.885 121.847 142.591 121.852H121.197C121.064 121.849 120.934 121.814 120.816 121.752C120.698 121.69 120.597 121.601 120.519 121.493C120.441 121.385 120.39 121.26 120.368 121.128C120.347 120.997 120.356 120.862 120.395 120.735L124.305 103.107C124.385 102.839 124.555 102.606 124.786 102.447C125.018 102.289 125.296 102.215 125.576 102.237H146.97C147.542 102.252 147.904 102.513 147.779 103.079Z" fill="#263238"/>
<path opacity="0.4" d="M147.779 103.078L143.862 120.842C143.791 121.127 143.627 121.38 143.398 121.562C143.168 121.745 142.885 121.847 142.591 121.852H121.924C121.79 121.849 121.66 121.815 121.541 121.753C121.423 121.691 121.321 121.602 121.243 121.494C121.165 121.386 121.113 121.261 121.091 121.129C121.07 120.997 121.079 120.862 121.118 120.735L125.035 103.107C125.113 102.837 125.283 102.603 125.515 102.445C125.746 102.286 126.026 102.213 126.306 102.237H146.97C147.542 102.251 147.904 102.513 147.779 103.078Z" fill="white"/>
<path d="M144.367 121.304L148.262 103.634C148.391 103.054 148.029 102.792 147.453 102.792H126.789C126.51 102.769 126.231 102.843 125.999 103.001C125.768 103.16 125.598 103.393 125.518 103.662L121.562 121.537L144.367 121.304Z" fill="#EF4050"/>
<path opacity="0.4" d="M148.262 103.63L146.207 112.967L144.363 121.305L132.156 121.43L121.566 121.534L125.504 103.662C125.582 103.393 125.751 103.16 125.982 103.001C126.213 102.843 126.492 102.769 126.771 102.792H147.46C148.033 102.792 148.391 103.057 148.262 103.63Z" fill="white"/>
<path opacity="0.2" d="M146.207 112.967L144.363 121.305L132.156 121.43H122.017L123.675 113.805C123.728 113.568 123.859 113.357 124.048 113.205C124.236 113.053 124.471 112.969 124.713 112.967H146.207Z" fill="black"/>
<path d="M146.558 114.126C146.479 113.857 146.309 113.624 146.077 113.466C145.846 113.308 145.566 113.235 145.287 113.26H124.623C124.051 113.26 123.689 113.517 123.814 114.097L125.382 121.207H121.892C121.805 121.207 121.721 121.242 121.659 121.304C121.597 121.365 121.562 121.449 121.562 121.537C121.562 121.624 121.597 121.708 121.659 121.769C121.721 121.831 121.805 121.866 121.892 121.866H147.346C147.457 121.864 147.566 121.837 147.665 121.788C147.765 121.738 147.852 121.667 147.921 121.58C147.989 121.492 148.037 121.391 148.062 121.282C148.086 121.174 148.086 121.061 148.062 120.953L146.558 114.126Z" fill="#EF4050"/>
<path opacity="0.4" d="M146.558 114.126C146.479 113.857 146.309 113.624 146.077 113.466C145.846 113.308 145.566 113.235 145.287 113.26H124.623C124.051 113.26 123.689 113.517 123.814 114.097L125.382 121.207H121.892C121.805 121.207 121.721 121.242 121.659 121.304C121.597 121.365 121.562 121.449 121.562 121.537C121.562 121.624 121.597 121.708 121.659 121.769C121.721 121.831 121.805 121.866 121.892 121.866H147.346C147.457 121.864 147.566 121.837 147.665 121.788C147.765 121.738 147.852 121.667 147.921 121.58C147.989 121.492 148.037 121.391 148.062 121.282C148.086 121.174 148.086 121.061 148.062 120.953L146.558 114.126Z" fill="white"/>
<path d="M121.273 118.44H120.073L119.923 119.088H121.09L121.273 118.44Z" fill="black"/>
<path d="M113.693 121.949H110.239C110.212 121.949 110.185 121.944 110.16 121.934C110.135 121.924 110.112 121.909 110.093 121.89C110.074 121.871 110.059 121.848 110.049 121.823C110.039 121.798 110.034 121.772 110.035 121.745C110.035 121.691 110.056 121.639 110.094 121.601C110.133 121.562 110.185 121.541 110.239 121.541H113.693C114.26 121.542 114.82 121.415 115.331 121.17C115.843 120.926 116.292 120.569 116.647 120.127C117.04 119.636 117.539 119.24 118.106 118.968C118.673 118.697 119.294 118.557 119.923 118.559H120.531C120.585 118.56 120.636 118.581 120.675 118.619C120.713 118.657 120.734 118.709 120.735 118.763C120.735 118.817 120.714 118.869 120.676 118.907C120.637 118.945 120.585 118.967 120.531 118.967H119.93C119.363 118.966 118.803 119.092 118.292 119.337C117.781 119.582 117.331 119.939 116.976 120.381C116.582 120.872 116.083 121.269 115.514 121.54C114.946 121.812 114.323 121.951 113.693 121.949Z" fill="black"/>
<path d="M56.1274 119.421V120.914C56.1274 121.587 56.9401 121.866 57.6131 121.866H110.089C110.755 121.866 111.546 121.587 111.546 120.914V119.421H56.1274Z" fill="#263238"/>
<path opacity="0.4" d="M56.1274 119.421V120.914C56.1274 121.587 56.9401 121.866 57.6131 121.866H110.089C110.755 121.866 111.546 121.587 111.546 120.914V119.421H56.1274Z" fill="white"/>
<path opacity="0.2" d="M74.0059 119.421V120.914C74.0059 121.587 74.8042 121.866 75.4772 121.866H110.089C110.755 121.866 111.546 121.587 111.546 120.914V119.421H74.0059Z" fill="black"/>
<path d="M120.328 91.0241L114.081 119.36C113.969 119.815 113.709 120.221 113.343 120.514C112.976 120.806 112.523 120.969 112.054 120.978H77.9263C77.0206 120.978 76.4334 120.13 76.6447 119.188L82.8846 91.0671C83.0958 90.1435 83.998 89.6816 84.9145 89.6816H119.039C119.956 89.6852 120.532 90.1005 120.328 91.0241Z" fill="#263238"/>
<path opacity="0.4" d="M120.328 91.0241L114.081 119.36C113.969 119.815 113.709 120.221 113.343 120.514C112.976 120.806 112.523 120.969 112.054 120.978H79.0862C78.1697 120.978 77.5933 120.13 77.7974 119.188L84.0445 91.0671C84.2486 90.1435 85.1579 89.6816 86.0744 89.6816H119.039C119.955 89.6852 120.532 90.1005 120.328 91.0241Z" fill="white"/>
<path opacity="0.2" d="M103.501 105.426C103.501 107.853 100.902 109.826 98.9943 109.826C97.0861 109.826 95.9584 107.853 96.4883 105.426C97.0181 102.999 98.9263 101.112 100.784 101.037C100.24 103.464 101.404 105.426 103.29 105.426C103.361 105.433 103.431 105.433 103.501 105.426Z" fill="black"/>
</g>
<defs>
<clipPath id="clip0_20_4180">
<rect width="160" height="160" fill="white" transform="matrix(-1 0 0 1 160 0)"/>
</clipPath>
</defs>
</svg>
