<svg width="160" height="160" viewBox="0 0 160 160" fill="none" xmlns="http://www.w3.org/2000/svg">
<g clip-path="url(#clip0_20_4398)">
<circle cx="75" cy="75" r="75" transform="matrix(-1 0 0 1 155 5)" fill="#FABABD"/>
<path d="M43.5 104C55.3164 104 79 109.85 79 121.5V129C79 131.75 76.7179 134 73.9286 134H13.0714C10.2821 134 8 131.75 8 129V121.5C8 109.85 31.6836 104 43.5 104Z" fill="#782028"/>
<path d="M98.5 92C115.975 92 151 100.775 151 118.25V129.5C151 133.625 147.625 137 143.5 137H53.5C49.375 137 46 133.625 46 129.5V118.25C46 100.775 81.025 92 98.5 92Z" fill="#EF4050"/>
<path d="M76 54.5C76 66.95 85.9916 77 98.4624 77C110.933 77 121 66.95 121 54.5C121 42.05 110.933 32 98.4624 32C85.9916 32 76 42.05 76 54.5Z" fill="#EF4050"/>
<path d="M28 78C28 86.3 34.8831 93 43.4741 93C52.0651 93 59 86.3 59 78C59 69.7 52.0651 63 43.4741 63C34.8831 63 28 69.7 28 78Z" fill="#782028"/>
<path d="M122.125 112.25H74.875V152.75H122.125V112.25Z" fill="white"/>
<path d="M68.125 105.5H128.875C132.588 105.5 135.625 108.537 135.625 112.25V152.75C135.625 156.463 132.588 159.5 128.875 159.5H68.125C64.4125 159.5 61.4088 156.463 61.4088 152.75L61.375 112.25C61.375 108.537 64.4125 105.5 68.125 105.5ZM74.875 152.75H122.125V112.25H74.875V152.75Z" fill="#782028"/>
<rect x="92" y="118" width="24" height="4" rx="2" fill="#FABABD"/>
<rect x="92" y="126" width="24" height="4" rx="2" fill="#FABABD"/>
<rect x="81" y="134" width="35" height="4" rx="2" fill="#FABABD"/>
<rect x="81" y="142" width="35" height="4" rx="2" fill="#FABABD"/>
<path d="M85.7529 120.198V127.545C85.7529 128.221 85.2213 128.753 84.5446 128.753H77.1979C76.8838 128.753 76.5696 128.632 76.3521 128.391L49.9621 102.025L59.0246 92.9623L85.3904 119.328C85.6321 119.57 85.7529 119.86 85.7529 120.198ZM42.9538 95.0164C42.0113 94.0739 42.0113 92.5514 42.9538 91.6089L48.6088 85.9539C49.5513 85.0114 51.0738 85.0114 52.0163 85.9539L56.4388 90.3764L47.3763 99.4389L42.9538 95.0164Z" fill="#FBD300"/>
</g>
<defs>
<clipPath id="clip0_20_4398">
<rect width="160" height="160" fill="white" transform="matrix(-1 0 0 1 160 0)"/>
</clipPath>
</defs>
</svg>
