<svg width="160" height="160" viewBox="0 0 160 160" fill="none" xmlns="http://www.w3.org/2000/svg">
<circle cx="80" cy="80" r="75" fill="#FABABD"/>
<rect x="17.5" y="17.5" width="125" height="125" rx="10" fill="white"/>
<path d="M17.5 27.5C17.5 21.9772 21.9772 17.5 27.5 17.5H132.5C138.023 17.5 142.5 21.9772 142.5 27.5V42.5H17.5V27.5Z" fill="#EF4050"/>
<path d="M29.9747 117.497C30.0447 115.893 31.8243 114.967 33.178 115.829L42.3154 121.651C43.6691 122.513 43.5816 124.517 42.1579 125.259L32.5479 130.261C31.1242 131.002 29.4321 129.924 29.5021 128.321L29.9747 117.497Z" fill="#FFD946"/>
<rect x="49" y="121" width="81" height="5" rx="2.5" fill="#FABABD"/>
<rect x="68" y="117" width="4" height="13" rx="2" fill="#EF4050"/>
<circle cx="30" cy="30" r="2.5" fill="#FABABD"/>
<circle cx="37.5" cy="30" r="2.5" fill="#FABABD"/>
<circle cx="45" cy="30" r="2.5" fill="#FABABD"/>
<path d="M95.6252 75.917H63.3752C62.3897 75.917 61.5835 76.7232 61.5835 77.7087V87.0074C61.5835 87.3657 61.6014 87.7241 61.6372 88.0824C61.9956 93.6007 65.3997 97.0049 70.9181 97.3632C71.2764 97.3991 71.6347 97.417 71.9931 97.417H87.0073C87.3656 97.417 87.7239 97.3991 88.0823 97.3632C93.6006 97.0049 97.0047 93.6007 97.3631 88.0824C97.3989 87.7241 97.4168 87.3657 97.4168 87.0074V77.7087C97.4168 76.7232 96.6106 75.917 95.6252 75.917ZM72.3335 86.9357C72.9427 87.8316 73.7668 88.5662 74.7164 89.0499C75.3972 89.3724 75.666 90.1787 75.3256 90.8595C75.0927 91.3253 74.6089 91.5941 74.1252 91.5941C73.9281 91.5941 73.7131 91.5403 73.5339 91.4507C72.1364 90.7699 70.9539 89.7128 70.1118 88.4407C69.3952 87.3657 69.3952 85.9682 70.1118 84.8932C70.9539 83.6212 72.1364 82.5641 73.5339 81.8832C74.1968 81.5428 75.0031 81.8116 75.3256 82.4745C75.666 83.1553 75.3972 83.9616 74.7164 84.2841C73.7668 84.7678 72.9427 85.5024 72.3335 86.3982C72.226 86.5595 72.226 86.7745 72.3335 86.9357ZM89.2648 88.4407C88.4048 89.7128 87.2222 90.7699 85.8427 91.4507C85.6456 91.5403 85.4485 91.5941 85.2514 91.5941C84.7498 91.5941 84.2839 91.3253 84.051 90.8595C83.7106 90.1787 83.9793 89.3724 84.6423 89.0499C85.6098 88.5662 86.4339 87.8316 87.0252 86.9357C87.1506 86.7745 87.1506 86.5595 87.0252 86.3982C86.4339 85.5024 85.6098 84.7678 84.6423 84.2841C83.9793 83.9616 83.7106 83.1553 84.051 82.4745C84.3735 81.8116 85.1798 81.5428 85.8427 81.8832C87.2222 82.5641 88.4048 83.6212 89.2648 84.8932C89.9814 85.9682 89.9814 87.3657 89.2648 88.4407Z" fill="#EF4050"/>
<path d="M97.4168 71.9926V72.333C97.4168 73.3184 96.6106 74.1247 95.6252 74.1247L63.3752 74.1426C62.3897 74.1426 61.5835 73.3363 61.5835 72.3509V71.9926C61.5835 71.6343 61.6014 71.2759 61.6372 70.9176C61.9956 65.3993 65.3997 61.9951 70.9181 61.6368C71.2764 61.6009 71.6347 61.583 71.9931 61.583H87.0073C87.3656 61.583 87.7239 61.6009 88.0823 61.6368C93.6006 61.9951 97.0047 65.3993 97.3631 70.9176C97.3989 71.2759 97.4168 71.6343 97.4168 71.9926Z" fill="#EF4050"/>
</svg>
