<svg width="97" height="97" viewBox="0 0 97 97" fill="none" xmlns="http://www.w3.org/2000/svg">
<rect x="0.8125" y="0.542969" width="96.1743" height="96.1742" rx="8" fill="#FAB437"/>
<g clip-path="url(#clip0_20_4432)">
<path d="M60.8792 46.443C57.8569 44.843 54.0792 43.8652 49.5458 43.5096L49.6792 42.1763C50.1236 42.0874 50.5014 41.843 50.8125 41.443C51.1236 41.043 51.2792 40.5763 51.2792 40.043V33.7763C51.2792 32.7096 51.0125 31.7541 50.4792 30.9096C49.9458 30.0652 49.2347 29.4207 48.3458 28.9763C49.2347 28.1763 49.7014 27.2207 49.7458 26.1096C49.7903 24.9985 49.4347 24.043 48.6792 23.243C47.9236 22.443 46.9681 22.043 45.8125 22.043C44.6569 22.043 43.7236 22.443 43.0125 23.243C42.3014 24.043 41.9458 24.9985 41.9458 26.1096C41.9458 27.2207 42.3903 28.1763 43.2792 28.9763C42.3903 29.4207 41.6792 30.0652 41.1458 30.9096C40.6125 31.7541 40.3458 32.7096 40.3458 33.7763V40.043C40.3458 40.5763 40.5014 41.043 40.8125 41.443C41.1236 41.843 41.5014 42.0874 41.9458 42.1763L42.0792 43.5096C37.9903 43.8652 34.5681 44.6652 31.8125 45.9096C27.9903 47.5985 25.9903 49.8652 25.8125 52.7096C25.9903 54.9319 27.2792 56.7985 29.6792 58.3096C31.6347 59.5541 34.2569 60.5319 37.5458 61.243C40.3014 61.7763 43.0347 62.043 45.7458 62.043C48.4569 62.043 50.9903 61.8207 53.3458 61.3763C55.7014 60.9319 57.8125 60.3096 59.6792 59.5096C62.1681 58.443 63.9014 57.1096 64.8792 55.5096C65.8569 53.9096 66.0125 52.2874 65.3458 50.643C64.6792 48.9985 63.1903 47.5985 60.8792 46.443ZM42.7458 50.9763C42.7458 51.6874 42.9681 52.243 43.4125 52.643C43.8569 53.043 44.3903 53.243 45.0125 53.243H46.6125C47.2347 53.243 47.7681 53.043 48.2125 52.643C48.6569 52.243 48.9236 51.6874 49.0125 50.9763L49.1458 48.5763C51.4569 48.843 53.3014 49.3096 54.6792 49.9763C56.0569 50.643 56.7458 51.3319 56.7458 52.043C56.5681 52.843 55.7681 53.5541 54.3458 54.1763C53.1903 54.7096 51.7236 55.1096 49.9458 55.3763C48.4347 55.5541 47.0569 55.6652 45.8125 55.7096C44.5681 55.7541 43.1903 55.643 41.6792 55.3763C39.9014 55.1096 38.4347 54.7096 37.2792 54.1763C35.8569 53.5541 35.0569 52.843 34.8792 52.043C34.8792 51.3319 35.5903 50.643 37.0125 49.9763C38.4347 49.3096 40.2569 48.843 42.4792 48.5763L42.7458 50.9763ZM43.5458 25.9096C43.5458 25.2874 43.7681 24.7541 44.2125 24.3096C44.6569 23.8652 45.1903 23.643 45.8125 23.643C46.7903 23.643 47.4792 24.0207 47.8792 24.7763C48.2792 25.5319 48.2792 26.2874 47.8792 27.043C47.4792 27.7985 46.7903 28.2207 45.8125 28.3096C45.1903 28.3096 44.6569 28.0874 44.2125 27.643C43.7681 27.1985 43.5458 26.6207 43.5458 25.9096ZM41.9458 40.043V33.7763C41.9458 32.5319 42.3458 31.5763 43.1458 30.9096C43.9458 30.243 44.8569 29.9096 45.8792 29.9096C46.9014 29.9096 47.7903 30.243 48.5458 30.9096C49.3014 31.5763 49.6792 32.5319 49.6792 33.7763V40.043C49.6792 40.2207 49.6125 40.3985 49.4792 40.5763C49.3458 40.7541 49.1681 40.843 48.9458 40.843C48.7236 40.843 48.5458 40.9096 48.4125 41.043C48.2792 41.1763 48.2125 41.3319 48.2125 41.5096L47.4125 50.843C47.4125 51.1096 47.3236 51.3319 47.1458 51.5096C46.9681 51.6874 46.7903 51.7763 46.6125 51.7763H45.0125C44.8347 51.7763 44.6792 51.6874 44.5458 51.5096C44.4125 51.3319 44.3014 51.1096 44.2125 50.843L43.5458 41.5096C43.4569 41.3319 43.3458 41.1763 43.2125 41.043C43.0792 40.9096 42.9014 40.843 42.6792 40.843C42.4569 40.843 42.2792 40.7541 42.1458 40.5763C42.0125 40.3985 41.9458 40.2207 41.9458 40.043ZM59.1458 58.043C56.8347 59.1096 54.0347 59.8207 50.7458 60.1763C47.4569 60.5319 44.1681 60.5319 40.8792 60.1763C37.5903 59.8207 34.8347 59.1096 32.6125 58.043C30.9236 57.3319 29.6347 56.5096 28.7458 55.5763C27.8569 54.643 27.4125 53.6874 27.4125 52.7096C27.5903 50.3985 29.4569 48.5319 33.0125 47.1096C35.6792 46.043 38.7458 45.3319 42.2125 44.9763L42.3458 46.9763C39.9458 47.3319 37.9681 47.8874 36.4125 48.643C34.8569 49.3985 33.9014 50.243 33.5458 51.1763C33.1903 52.1096 33.3681 52.9985 34.0792 53.843C34.7903 54.6874 35.8569 55.3763 37.2792 55.9096C39.5014 56.7985 42.3458 57.243 45.8125 57.243C49.2792 57.243 52.1236 56.7985 54.3458 55.9096C55.8569 55.3763 56.9458 54.6874 57.6125 53.843C58.2792 52.9985 58.4569 52.1096 58.1458 51.1763C57.8347 50.243 56.9014 49.3985 55.3458 48.643C53.7903 47.8874 51.7681 47.3319 49.2792 46.9763L49.4125 44.9763C53.7681 45.4207 57.3681 46.3541 60.2125 47.7763C62.1681 48.843 63.4125 49.9985 63.9458 51.243C64.4792 52.4874 64.3236 53.7096 63.4792 54.9096C62.6347 56.1096 61.1903 57.1541 59.1458 58.043Z" fill="white"/>
</g>
<defs>
<clipPath id="clip0_20_4432">
<rect width="40.02" height="40" fill="white" transform="matrix(1 0 0 -1 25.8027 62.043)"/>
</clipPath>
</defs>
</svg>
