<svg width="97" height="97" viewBox="0 0 97 97" fill="none" xmlns="http://www.w3.org/2000/svg">
<rect x="0.35498" y="0.542969" width="96.1743" height="96.1742" rx="8" fill="#5AB48E"/>
<g clip-path="url(#clip0_20_4426)">
<path d="M41.0781 50.0426C40.9892 50.0426 40.8558 49.9981 40.6781 49.9092L36.4114 46.3092C36.2336 46.1315 36.1447 45.9537 36.1447 45.7759C36.1447 45.5981 36.2336 45.4204 36.4114 45.2426L40.6781 41.6426C40.8558 41.5537 41.0336 41.5092 41.2114 41.5092C41.3892 41.5092 41.5225 41.5759 41.6114 41.7092C41.7003 41.8426 41.7447 41.9981 41.7447 42.1759C41.7447 42.3537 41.7003 42.487 41.6114 42.5759L37.8781 45.7759L41.6114 48.9759C41.7003 49.0648 41.7447 49.1981 41.7447 49.3759C41.7447 49.5537 41.7003 49.7092 41.6114 49.8426C41.5225 49.9759 41.3447 50.0426 41.0781 50.0426ZM49.6114 50.0426C49.3447 50.0426 49.167 49.9759 49.0781 49.8426C48.9892 49.7092 48.9447 49.5537 48.9447 49.3759C48.9447 49.1981 48.9892 49.0648 49.0781 48.9759L52.8114 45.7759L49.0781 42.5759C48.9892 42.487 48.9447 42.3537 48.9447 42.1759C48.9447 41.9981 48.9892 41.8426 49.0781 41.7092C49.167 41.5759 49.3003 41.5092 49.4781 41.5092C49.6558 41.5092 49.8336 41.5537 50.0114 41.6426L54.2781 45.2426C54.4558 45.4204 54.5447 45.5981 54.5447 45.7759C54.5447 45.9537 54.4558 46.1315 54.2781 46.3092L50.0114 49.9092C49.8336 49.9981 49.7003 50.0426 49.6114 50.0426ZM43.8781 52.8426C43.7892 52.8426 43.7003 52.8204 43.6114 52.7759C43.5225 52.7315 43.4114 52.6426 43.2781 52.5092C43.1447 52.3759 43.1225 52.2204 43.2114 52.0426L45.8781 39.3759C45.8781 39.1981 45.9669 39.0648 46.1447 38.9759C46.3225 38.887 46.5003 38.8426 46.6781 38.8426C46.8558 38.8426 46.9892 38.9315 47.0781 39.1092C47.167 39.287 47.167 39.4648 47.0781 39.6426L44.4114 52.3092C44.4114 52.6648 44.2336 52.8426 43.8781 52.8426ZM60.9447 59.6426H29.7447C28.5892 59.6426 27.5669 59.2204 26.6781 58.3759C25.7892 57.5315 25.3447 56.487 25.3447 55.2426V28.8426C25.3447 27.5981 25.7892 26.5537 26.6781 25.7092C27.5669 24.8648 28.5892 24.4426 29.7447 24.4426H60.9447C62.1003 24.4426 63.1225 24.8648 64.0114 25.7092C64.9003 26.5537 65.3447 27.5981 65.3447 28.8426V55.2426C65.3447 56.487 64.9003 57.5315 64.0114 58.3759C63.1225 59.2204 62.1003 59.6426 60.9447 59.6426ZM29.7447 25.7759C28.9447 25.7759 28.2336 26.0648 27.6114 26.6426C26.9892 27.2204 26.6781 27.9537 26.6781 28.8426V55.2426C26.6781 56.1315 26.9892 56.8648 27.6114 57.4426C28.2336 58.0204 28.9447 58.3092 29.7447 58.3092H60.9447C61.7447 58.3092 62.4558 58.0204 63.0781 57.4426C63.7003 56.8648 64.0114 56.1315 64.0114 55.2426V28.8426C64.0114 27.9537 63.7003 27.2204 63.0781 26.6426C62.4558 26.0648 61.7447 25.7759 60.9447 25.7759H29.7447ZM64.6781 34.9759H26.0114C25.8336 34.9759 25.6781 34.9092 25.5447 34.7759C25.4114 34.6426 25.3447 34.487 25.3447 34.3092C25.3447 34.1315 25.4114 33.9759 25.5447 33.8426C25.6781 33.7092 25.8336 33.6426 26.0114 33.6426H64.6781C64.8558 33.6426 65.0114 33.7092 65.1447 33.8426C65.2781 33.9759 65.3447 34.1315 65.3447 34.3092C65.3447 34.487 65.2781 34.6426 65.1447 34.7759C65.0114 34.9092 64.8558 34.9759 64.6781 34.9759ZM36.6781 31.7759C36.0558 31.7759 35.5447 31.5759 35.1447 31.1759C34.7447 30.7759 34.5447 30.287 34.5447 29.7092C34.5447 29.1315 34.7447 28.6426 35.1447 28.2426C35.5447 27.8426 36.0336 27.6426 36.6114 27.6426C37.1892 27.6426 37.6781 27.8426 38.0781 28.2426C38.4781 28.6426 38.6781 29.1315 38.6781 29.7092C38.6781 30.287 38.4781 30.7759 38.0781 31.1759C37.6781 31.5759 37.2114 31.7759 36.6781 31.7759ZM36.6781 28.9759C36.4114 28.9759 36.2114 29.0426 36.0781 29.1759C35.9447 29.3092 35.8781 29.487 35.8781 29.7092C35.8781 29.9315 35.9447 30.1092 36.0781 30.2426C36.2114 30.3759 36.3892 30.4426 36.6114 30.4426C36.8336 30.4426 37.0114 30.3759 37.1447 30.2426C37.2781 30.1092 37.3447 29.9315 37.3447 29.7092C37.3447 29.487 37.2781 29.3092 37.1447 29.1759C37.0114 29.0426 36.8558 28.9759 36.6781 28.9759ZM30.1447 31.7759C29.6114 31.7759 29.1447 31.5759 28.7447 31.1759C28.3447 30.7759 28.1447 30.287 28.1447 29.7092C28.1447 29.1315 28.3447 28.6426 28.7447 28.2426C29.1447 27.8426 29.6336 27.6426 30.2114 27.6426C30.7892 27.6426 31.2781 27.8426 31.6781 28.2426C32.0781 28.6426 32.2781 29.1315 32.2781 29.7092C32.2781 30.287 32.0781 30.7759 31.6781 31.1759C31.2781 31.5759 30.7669 31.7759 30.1447 31.7759ZM30.1447 28.9759C29.9669 28.9759 29.8114 29.0426 29.6781 29.1759C29.5447 29.3092 29.4781 29.487 29.4781 29.7092C29.4781 29.9315 29.5447 30.1092 29.6781 30.2426C29.8114 30.3759 29.9892 30.4426 30.2114 30.4426C30.4336 30.4426 30.6114 30.3759 30.7447 30.2426C30.8781 30.1092 30.9447 29.9315 30.9447 29.7092C30.9447 29.487 30.8781 29.3092 30.7447 29.1759C30.6114 29.0426 30.4114 28.9759 30.1447 28.9759ZM43.0781 31.7759C42.4558 31.7759 41.9447 31.5759 41.5447 31.1759C41.1447 30.7759 40.9447 30.287 40.9447 29.7092C40.9447 29.1315 41.1447 28.6426 41.5447 28.2426C41.9447 27.8426 42.4336 27.6426 43.0114 27.6426C43.5892 27.6426 44.0781 27.8426 44.4781 28.2426C44.8781 28.6426 45.0781 29.1315 45.0781 29.7092C45.0781 30.287 44.8781 30.7759 44.4781 31.1759C44.0781 31.5759 43.6114 31.7759 43.0781 31.7759ZM43.0781 28.9759C42.8114 28.9759 42.6114 29.0426 42.4781 29.1759C42.3447 29.3092 42.2781 29.487 42.2781 29.7092C42.2781 29.9315 42.3447 30.1315 42.4781 30.3092C42.6114 30.487 42.7892 30.5759 43.0114 30.5759C43.2336 30.5759 43.4336 30.487 43.6114 30.3092C43.7892 30.1315 43.8781 29.9315 43.8781 29.7092C43.8781 29.487 43.7892 29.3092 43.6114 29.1759C43.4336 29.0426 43.2558 28.9759 43.0781 28.9759Z" fill="white"/>
</g>
<defs>
<clipPath id="clip0_20_4426">
<rect width="40.02" height="40" fill="white" transform="matrix(1 0 0 -1 25.335 62.043)"/>
</clipPath>
</defs>
</svg>
