<svg width="97" height="97" viewBox="0 0 97 97" fill="none" xmlns="http://www.w3.org/2000/svg">
<rect x="0.625488" y="0.542969" width="96.1743" height="96.1742" rx="8" fill="#DF385B"/>
<g clip-path="url(#clip0_20_4421)">
<path d="M63.2255 24.8428H48.8255C48.2033 24.8428 47.6477 25.065 47.1588 25.5094C46.6699 25.9539 46.4255 26.5317 46.4255 27.2428V35.9095L37.0922 38.4428H28.2922C27.581 38.4428 26.9588 38.7095 26.4255 39.2428C25.8922 39.7761 25.6255 40.3983 25.6255 41.1095V46.7095C25.6255 47.4206 25.8922 48.0206 26.4255 48.5095C26.9588 48.9983 27.581 49.2428 28.2922 49.2428H29.4922L30.4255 56.9761C30.6033 57.9539 31.1366 58.6206 32.0255 58.9761C32.4699 59.1539 32.9588 59.2206 33.4922 59.1761C34.0255 59.1317 34.4699 58.9761 34.8255 58.7095C35.6255 58.0872 35.9366 57.2428 35.7588 56.1761L34.8255 49.2428H37.0922L56.6922 54.8428C56.9588 54.8428 57.2033 54.7761 57.4255 54.6428C57.6477 54.5095 57.7588 54.3095 57.7588 54.0428V38.9761H63.2255C63.9366 38.9761 64.5144 38.7317 64.9588 38.2428C65.4033 37.7539 65.6255 37.1983 65.6255 36.5761V27.2428C65.6255 26.5317 65.4033 25.9539 64.9588 25.5094C64.5144 25.065 63.9366 24.8428 63.2255 24.8428ZM27.2255 46.7095V41.1095C27.2255 40.8428 27.3144 40.5983 27.4922 40.3761C27.6699 40.1539 27.9366 40.0428 28.2922 40.0428H36.4255V47.7761H28.2922C27.9366 47.7761 27.6699 47.665 27.4922 47.4428C27.3144 47.2206 27.2255 46.9761 27.2255 46.7095ZM34.2922 56.4428C34.2922 56.8872 34.1366 57.2206 33.8255 57.4428C33.5144 57.665 33.1366 57.7095 32.6922 57.5761C32.2477 57.4428 32.0255 57.1539 32.0255 56.7095L31.0922 49.2428H33.3588L34.2922 56.4428ZM56.1588 52.9761L38.0255 47.9095V39.9095L46.6922 37.3761C46.8699 37.8206 47.1588 38.1983 47.5588 38.5095C47.9588 38.8206 48.381 38.9761 48.8255 38.9761H50.8255L52.1588 40.3095C52.3366 40.3983 52.5366 40.4428 52.7588 40.4428C52.981 40.4428 53.1366 40.3983 53.2255 40.3095L54.5588 38.9761H56.1588V52.9761ZM64.0255 36.5761C64.0255 36.7539 63.9588 36.9317 63.8255 37.1095C63.6922 37.2872 63.4922 37.3761 63.2255 37.3761H54.2922C54.1144 37.3761 53.9366 37.465 53.7588 37.6428L52.6922 38.5761L51.7588 37.6428C51.581 37.465 51.4033 37.3761 51.2255 37.3761H48.8255C48.6477 37.3761 48.4699 37.2872 48.2922 37.1095C48.1144 36.9317 48.0255 36.7539 48.0255 36.5761V27.2428C48.0255 26.9761 48.1144 26.7761 48.2922 26.6428C48.4699 26.5094 48.6477 26.4428 48.8255 26.4428H63.2255C63.4922 26.4428 63.6922 26.5094 63.8255 26.6428C63.9588 26.7761 64.0255 26.9761 64.0255 27.2428V36.5761ZM60.6922 28.0428H51.3588C51.0033 28.0428 50.7588 28.1539 50.6255 28.3761C50.4922 28.5983 50.4922 28.8428 50.6255 29.1095C50.7588 29.3761 51.0033 29.5095 51.3588 29.5095H60.6922C61.0477 29.5095 61.2922 29.3761 61.4255 29.1095C61.5588 28.8428 61.5588 28.5983 61.4255 28.3761C61.2922 28.1539 61.0477 28.0428 60.6922 28.0428ZM60.6922 31.1095H51.3588C51.0033 31.1095 50.7588 31.2428 50.6255 31.5095C50.4922 31.7761 50.4922 32.0428 50.6255 32.3095C50.7588 32.5761 51.0033 32.7095 51.3588 32.7095H60.6922C61.0477 32.7095 61.2922 32.5761 61.4255 32.3095C61.5588 32.0428 61.5588 31.7761 61.4255 31.5095C61.2922 31.2428 61.0477 31.1095 60.6922 31.1095ZM56.0255 34.1761H51.3588C51.0033 34.265 50.7588 34.4206 50.6255 34.6428C50.4922 34.865 50.4922 35.1095 50.6255 35.3761C50.7588 35.6428 51.0033 35.7761 51.3588 35.7761H56.0255C56.381 35.7761 56.6255 35.6428 56.7588 35.3761C56.8922 35.1095 56.8922 34.865 56.7588 34.6428C56.6255 34.4206 56.381 34.265 56.0255 34.1761Z" fill="white"/>
</g>
<defs>
<clipPath id="clip0_20_4421">
<rect width="40.02" height="40" fill="white" transform="matrix(1 0 0 -1 25.6157 62.043)"/>
</clipPath>
</defs>
</svg>
