<svg width="160" height="160" viewBox="0 0 160 160" fill="none" xmlns="http://www.w3.org/2000/svg">
<g clip-path="url(#clip0_20_4151)">
<circle cx="80" cy="80" r="75" fill="#FABABD"/>
<rect x="62" y="33" width="68" height="89" rx="10" fill="#F6F7F9"/>
<path d="M62 43C62 37.4772 66.4772 33 72 33H120C125.523 33 130 37.4772 130 43V51H62V43Z" fill="#782028"/>
<circle cx="30" cy="30" r="2.5" fill="#C5CCFF"/>
<circle cx="37.5" cy="30" r="2.5" fill="#C5CCFF"/>
<circle cx="45" cy="30" r="2.5" fill="#C5CCFF"/>
<rect x="18" y="17" width="96" height="125" rx="10" fill="white"/>
<path d="M18 27C18 21.4772 22.4772 17 28 17H104C109.523 17 114 21.4772 114 27V42H18V27Z" fill="#782028"/>
<circle cx="30.5" cy="29.5" r="2.5" fill="#FABABD"/>
<circle cx="38" cy="29.5" r="2.5" fill="#FABABD"/>
<circle cx="45.5" cy="29.5" r="2.5" fill="#FABABD"/>
<rect x="48" y="71" width="54" height="5" rx="2.5" fill="#FABABD"/>
<rect x="48" y="92" width="54" height="5" rx="2.5" fill="#FABABD"/>
<rect x="48" y="113" width="54" height="5" rx="2.5" fill="#FABABD"/>
<path d="M32.3981 77.3605H30.3701L33.5381 68.4805H35.4341L38.5901 77.3605H36.5261L35.9021 75.4885H33.0341L32.3981 77.3605ZM34.2341 71.9605L33.5981 73.8565H35.3501L34.7141 71.9605C34.6181 71.6605 34.5101 71.3125 34.4741 71.0965C34.4381 71.3005 34.3421 71.6365 34.2341 71.9605Z" fill="#782028"/>
<path d="M34.3281 119.664C31.6641 119.664 29.9961 117.9 29.9961 115.092C29.9961 112.32 31.7601 110.496 34.4121 110.496C36.6321 110.496 38.2281 111.768 38.5041 113.76H36.4521C36.1881 112.872 35.4321 112.368 34.3641 112.368C32.9241 112.368 32.0481 113.388 32.0481 115.08C32.0481 116.748 32.9361 117.792 34.3641 117.792C35.4561 117.792 36.2601 117.252 36.5001 116.376H38.5161C38.2041 118.356 36.5481 119.664 34.3281 119.664Z" fill="#782028"/>
<path d="M114 103.97C100.74 103.97 90 114.71 90 127.97C90 141.23 100.74 151.97 114 151.97C127.26 151.97 138 141.23 138 127.97C138 114.71 127.26 103.97 114 103.97ZM126.75 140.69C119.7 147.71 108.3 147.71 101.28 140.69L114 127.97V109.97C118.62 109.97 123.21 111.74 126.72 115.25C133.77 122.27 133.77 133.67 126.75 140.69Z" fill="white"/>
<path d="M126.72 115.25C123.21 111.74 118.62 109.97 114 109.97V127.97L101.28 140.69C108.3 147.71 119.7 147.71 126.75 140.69C133.77 133.67 133.77 122.27 126.72 115.25ZM114 97.9697C97.44 97.9697 84 111.41 84 127.97C84 144.53 97.44 157.97 114 157.97C130.56 157.97 144 144.53 144 127.97C144 111.41 130.56 97.9697 114 97.9697ZM114 151.97C100.74 151.97 90 141.23 90 127.97C90 114.71 100.74 103.97 114 103.97C127.26 103.97 138 114.71 138 127.97C138 141.23 127.26 151.97 114 151.97Z" fill="#EF4050"/>
<path d="M35.0002 88.333C31.3202 88.333 28.3335 91.3197 28.3335 94.9997C28.3335 98.6797 31.3202 101.666 35.0002 101.666C38.6802 101.666 41.6668 98.6797 41.6668 94.9997C41.6668 91.3197 38.6802 88.333 35.0002 88.333ZM33.1935 97.8597L30.8002 95.4663C30.5402 95.2063 30.5402 94.7863 30.8002 94.5263C31.0602 94.2663 31.4802 94.2663 31.7402 94.5263L33.6668 96.4463L38.2535 91.8597C38.5135 91.5997 38.9335 91.5997 39.1935 91.8597C39.4535 92.1197 39.4535 92.5397 39.1935 92.7997L34.1335 97.8597C33.8802 98.1197 33.4535 98.1197 33.1935 97.8597Z" fill="#FBD300"/>
</g>
<defs>
<clipPath id="clip0_20_4151">
<rect width="160" height="160" fill="white"/>
</clipPath>
</defs>
</svg>
