<svg width="160" height="160" viewBox="0 0 160 160" fill="none" xmlns="http://www.w3.org/2000/svg">
<circle cx="75" cy="75" r="75" transform="matrix(-1 0 0 1 155 5)" fill="#FABABD"/>
<circle cx="2.5" cy="2.5" r="2.5" transform="matrix(-1 0 0 1 132.5 27.5)" fill="#FABABD"/>
<circle cx="2.5" cy="2.5" r="2.5" transform="matrix(-1 0 0 1 125 27.5)" fill="#FABABD"/>
<circle cx="2.5" cy="2.5" r="2.5" transform="matrix(-1 0 0 1 117.5 27.5)" fill="#FABABD"/>
<path fill-rule="evenodd" clip-rule="evenodd" d="M125 13C130.523 13 135 17.4772 135 23V26.104L142.959 30.7107C144.349 31.5148 144.346 33.5211 142.956 34.3221L135 38.9038V43C135 48.5228 130.523 53 125 53H53.0001C47.4772 53 43.0001 48.5228 43.0001 43V23C43.0001 17.4772 47.4772 13 53.0001 13H125Z" fill="white"/>
<rect width="64" height="8" transform="matrix(-1 0 0 1 122 29)" fill="white"/>
<circle cx="4" cy="4" r="4" transform="matrix(-1 0 0 1 122 29)" fill="#EF4050"/>
<circle cx="4" cy="4" r="4" transform="matrix(-1 0 0 1 108 29)" fill="#EF4050"/>
<circle cx="4" cy="4" r="4" transform="matrix(-1 0 0 1 94 29)" fill="#EF4050"/>
<circle cx="4" cy="4" r="4" transform="matrix(-1 0 0 1 80 29)" fill="#EF4050"/>
<circle cx="4" cy="4" r="4" transform="matrix(-1 0 0 1 66 29)" fill="#EF4050"/>
<path fill-rule="evenodd" clip-rule="evenodd" d="M128 105C133.523 105 138 109.477 138 115V118.104L145.959 122.711C147.349 123.515 147.346 125.521 145.956 126.322L138 130.904V135C138 140.523 133.523 145 128 145H42.0001C36.4772 145 32.0001 140.523 32.0001 135V115C32.0001 109.477 36.4772 105 42.0001 105H128Z" fill="#782028"/>
<circle cx="4" cy="4" r="4" transform="matrix(-1 0 0 1 125 121)" fill="#FABABD"/>
<circle cx="4" cy="4" r="4" transform="matrix(-1 0 0 1 111 121)" fill="#FABABD"/>
<circle cx="4" cy="4" r="4" transform="matrix(-1 0 0 1 97 121)" fill="#FABABD"/>
<circle cx="4" cy="4" r="4" transform="matrix(-1 0 0 1 83 121)" fill="#FABABD"/>
<circle cx="4" cy="4" r="4" transform="matrix(-1 0 0 1 69 121)" fill="#FABABD"/>
<circle cx="4" cy="4" r="4" transform="matrix(-1 0 0 1 55 121)" fill="#FABABD"/>
<path fill-rule="evenodd" clip-rule="evenodd" d="M20.9999 59C15.4771 59 10.9999 63.4772 10.9999 69V72.104L3.04057 76.7107C1.65142 77.5148 1.65358 79.5211 3.04446 80.3221L10.9999 84.9038V89C10.9999 94.5228 15.4771 99 20.9999 99H74.9999C80.5228 99 84.9999 94.5228 84.9999 89V69C84.9999 63.4772 80.5228 59 74.9999 59H20.9999Z" fill="#FBD300"/>
<rect width="50" height="8" transform="translate(24 75)" fill="#FBD300"/>
<circle cx="28" cy="79" r="4" fill="#782028"/>
<circle cx="42" cy="79" r="4" fill="#782028"/>
<circle cx="56" cy="79" r="4" fill="#782028"/>
<circle cx="70" cy="79" r="4" fill="#782028"/>
<path d="M99.2556 93.7701C99.2556 94.8747 100.151 95.7701 101.256 95.7701H107.243C108.348 95.7701 109.243 94.8747 109.243 93.7701V93.6737C109.243 85.3791 104.205 81.0951 99.4356 77.358C95.3865 74.0766 91.6973 70.9775 91.6973 65.6909C91.6973 59.4927 95.4765 55.391 101.775 55.391C107.538 55.391 111.691 59.3225 112.448 65.2449C112.588 66.3405 113.468 67.2404 114.573 67.2404H122C123.105 67.2404 124.009 66.3413 123.924 65.2399C123.008 53.274 113.874 45 101.505 45C88.0982 45 80 52.8388 80 64.9617C80 74.7147 86.2086 79.3633 91.4274 83.1004C95.8364 86.2906 99.2556 89.0251 99.2556 93.6737V93.7701ZM103.845 114C107.894 114 111.133 110.719 111.133 106.799C111.133 102.789 107.894 99.5073 103.845 99.5073C99.8855 99.5073 96.5562 102.789 96.5562 106.799C96.5562 110.627 99.8855 114 103.845 114Z" fill="#EF4050"/>
</svg>
