<svg width="73" height="72" viewBox="0 0 73 72" fill="none" xmlns="http://www.w3.org/2000/svg">
<path d="M21.5 24H12.5C9.2 24 6.5 21.3 6.5 18V12C6.5 8.7 9.2 6 12.5 6H21.5C24.8 6 27.5 8.7 27.5 12V18C27.5 21.3 24.8 24 21.5 24Z" fill="#FFD946"/>
<path d="M62.9 21H52.1C50.12 21 48.5 19.38 48.5 17.4V12.6C48.5 10.62 50.12 9 52.1 9H62.9C64.88 9 66.5 10.62 66.5 12.6V17.4C66.5 19.38 64.88 21 62.9 21Z" fill="#FFD946"/>
<path d="M62.9 43.5H52.1C50.12 43.5 48.5 41.88 48.5 39.9V35.1C48.5 33.12 50.12 31.5 52.1 31.5H62.9C64.88 31.5 66.5 33.12 66.5 35.1V39.9C66.5 41.88 64.88 43.5 62.9 43.5Z" fill="#FFD946"/>
<path opacity="0.96" d="M48.5 39.75C49.73 39.75 50.75 38.73 50.75 37.5C50.75 36.27 49.73 35.25 48.5 35.25H40.25V17.25H48.5C49.73 17.25 50.75 16.23 50.75 15C50.75 13.77 49.73 12.75 48.5 12.75H27.5C26.27 12.75 25.25 13.77 25.25 15C25.25 16.23 26.27 17.25 27.5 17.25H35.75V54C35.75 58.56 39.44 62.25 44 62.25H48.5C49.73 62.25 50.75 61.23 50.75 60C50.75 58.77 49.73 57.75 48.5 57.75H44C41.93 57.75 40.25 56.07 40.25 54V39.75H48.5Z" fill="#FFD946"/>
<path d="M62.9 66H52.1C50.12 66 48.5 64.38 48.5 62.4V57.6C48.5 55.62 50.12 54 52.1 54H62.9C64.88 54 66.5 55.62 66.5 57.6V62.4C66.5 64.38 64.88 66 62.9 66Z" fill="#FFD946"/>
</svg>
