<svg width="97" height="97" viewBox="0 0 97 97" fill="none" xmlns="http://www.w3.org/2000/svg">
<rect x="0.540039" y="0.542969" width="96.1743" height="96.1742" rx="8" fill="#2AAA94"/>
<g clip-path="url(#clip0_20_4435)">
<path d="M45.5298 42.043C45.4409 42.043 45.352 42.043 45.2631 42.043L29.3965 36.1763C29.0409 35.9985 28.8631 35.7319 28.8631 35.3763C28.8631 35.0207 29.0409 34.7541 29.3965 34.5763L40.1965 30.5763C40.4631 30.4874 40.6853 30.5096 40.8631 30.643C41.0409 30.7763 41.1742 30.9319 41.2631 31.1096C41.352 31.2874 41.352 31.4874 41.2631 31.7096C41.1742 31.9319 41.0409 32.0874 40.8631 32.1763L32.0631 35.3763L45.5298 40.3096L58.9965 35.3763L50.1965 32.1763C50.0187 32.0874 49.8853 31.9319 49.7965 31.7096C49.7076 31.4874 49.7076 31.2874 49.7965 31.1096C49.8853 30.9319 50.0187 30.7763 50.1965 30.643C50.3742 30.5096 50.5965 30.4874 50.8631 30.5763L61.6631 34.5763C62.0187 34.7541 62.1965 35.0207 62.1965 35.3763C62.1965 35.7319 62.0187 35.9985 61.6631 36.1763L45.7965 42.043H45.5298ZM45.5298 62.043C45.4409 62.043 45.352 62.043 45.2631 62.043L36.3298 58.7096C36.152 58.6207 36.0187 58.4874 35.9298 58.3096C35.8409 58.1319 35.8409 57.9319 35.9298 57.7096C36.0187 57.4874 36.152 57.3319 36.3298 57.243C36.5076 57.1541 36.7298 57.1096 36.9965 57.1096L45.5298 60.3096L54.0631 57.1096C54.3298 57.1096 54.552 57.1541 54.7298 57.243C54.9076 57.3319 55.0409 57.4874 55.1298 57.7096C55.2187 57.9319 55.2187 58.1319 55.1298 58.3096C55.0409 58.4874 54.9076 58.6207 54.7298 58.7096L45.7965 62.043H45.5298ZM29.6631 51.643C29.4853 51.643 29.3076 51.5541 29.1298 51.3763C28.952 51.1985 28.8631 51.0207 28.8631 50.843V35.3763C28.8631 35.1096 28.952 34.9096 29.1298 34.7763C29.3076 34.643 29.5076 34.5763 29.7298 34.5763C29.952 34.5763 30.152 34.643 30.3298 34.7763C30.5076 34.9096 30.5965 35.1096 30.5965 35.3763V50.843C30.5965 51.0207 30.5076 51.1985 30.3298 51.3763C30.152 51.5541 29.9298 51.643 29.6631 51.643ZM61.3965 51.643C61.1298 51.643 60.9076 51.5541 60.7298 51.3763C60.552 51.1985 60.4631 51.0207 60.4631 50.843V35.3763C60.4631 35.1096 60.552 34.9096 60.7298 34.7763C60.9076 34.643 61.1076 34.5763 61.3298 34.5763C61.552 34.5763 61.752 34.643 61.9298 34.7763C62.1076 34.9096 62.1965 35.1096 62.1965 35.3763V50.843C62.1965 51.0207 62.1076 51.1985 61.9298 51.3763C61.752 51.5541 61.5742 51.643 61.3965 51.643ZM45.5298 35.3763C45.2631 35.3763 45.0631 35.2874 44.9298 35.1096C44.7965 34.9319 44.7298 34.7541 44.7298 34.5763V27.9096C44.7298 27.643 44.7965 27.4207 44.9298 27.243C45.0631 27.0652 45.2631 26.9985 45.5298 27.043C45.7965 27.0874 45.9965 27.1763 46.1298 27.3096C46.2631 27.443 46.3298 27.643 46.3298 27.9096V34.5763C46.3298 34.7541 46.2631 34.9319 46.1298 35.1096C45.9965 35.2874 45.7965 35.3763 45.5298 35.3763ZM60.4631 57.7763C60.1965 57.7763 59.9742 57.6874 59.7965 57.5096L55.7965 53.5096C55.6187 53.3319 55.5298 53.1319 55.5298 52.9096C55.5298 52.6874 55.6187 52.4874 55.7965 52.3096C55.9742 52.1319 56.1742 52.043 56.3965 52.043C56.6187 52.043 56.8187 52.1319 56.9965 52.3096L60.9965 56.3096C61.1742 56.4874 61.2631 56.6874 61.2631 56.9096C61.2631 57.1319 61.1742 57.3319 60.9965 57.5096C60.8187 57.6874 60.6409 57.7763 60.4631 57.7763ZM30.5965 57.7763C30.4187 57.7763 30.2409 57.6874 30.0631 57.5096C29.8853 57.3319 29.7965 57.1319 29.7965 56.9096C29.7965 56.6874 29.8853 56.4874 30.0631 56.3096L34.0631 52.3096C34.2409 52.1319 34.4409 52.043 34.6631 52.043C34.8853 52.043 35.0853 52.1319 35.2631 52.3096C35.4409 52.4874 35.5298 52.6874 35.5298 52.9096C35.5298 53.1319 35.4409 53.3319 35.2631 53.5096L31.2631 57.5096C31.0853 57.6874 30.8631 57.7763 30.5965 57.7763ZM45.5298 62.043C45.2631 62.043 45.0631 61.9541 44.9298 61.7763C44.7965 61.5985 44.7298 61.4207 44.7298 61.243V41.243C44.7298 40.9763 44.7965 40.7541 44.9298 40.5763C45.0631 40.3985 45.2631 40.3096 45.5298 40.3096C45.7965 40.3096 45.9965 40.3985 46.1298 40.5763C46.2631 40.7541 46.3298 40.9763 46.3298 41.243V61.243C46.3298 61.4207 46.2631 61.5985 46.1298 61.7763C45.9965 61.9541 45.7965 62.043 45.5298 62.043ZM45.5298 28.7096C44.6409 28.7096 43.8631 28.3763 43.1965 27.7096C42.5298 27.043 42.1965 26.2652 42.1965 25.3763C42.1965 24.4874 42.5298 23.7096 43.1965 23.043C43.8631 22.3763 44.6409 22.043 45.5298 22.043C46.4187 22.043 47.1965 22.3763 47.8631 23.043C48.5298 23.7096 48.8631 24.4874 48.8631 25.3763C48.8631 26.2652 48.5298 27.043 47.8631 27.7096C47.1965 28.3763 46.4187 28.7096 45.5298 28.7096ZM45.5298 23.643C45.0853 23.643 44.7076 23.8207 44.3965 24.1763C44.0853 24.5319 43.9298 24.9319 43.9298 25.3763C43.9298 25.8207 44.0853 26.1985 44.3965 26.5096C44.7076 26.8207 45.0853 26.9763 45.5298 26.9763C45.9742 26.9763 46.3742 26.8207 46.7298 26.5096C47.0853 26.1985 47.2631 25.8207 47.2631 25.3763C47.2631 24.9319 47.0853 24.5319 46.7298 24.1763C46.3742 23.8207 45.9742 23.643 45.5298 23.643ZM62.1965 62.043C61.3076 62.043 60.5298 61.7096 59.8631 61.043C59.1965 60.3763 58.8631 59.5985 58.8631 58.7096C58.8631 57.8207 59.1965 57.043 59.8631 56.3763C60.5298 55.7096 61.3076 55.3763 62.1965 55.3763C63.0853 55.3763 63.8631 55.7096 64.5298 56.3763C65.1965 57.043 65.5298 57.8207 65.5298 58.7096C65.5298 59.5985 65.1965 60.3763 64.5298 61.043C63.8631 61.7096 63.0853 62.043 62.1965 62.043ZM62.1965 56.9763C61.752 56.9763 61.352 57.1541 60.9965 57.5096C60.6409 57.8652 60.4853 58.2652 60.5298 58.7096C60.5742 59.1541 60.752 59.5541 61.0631 59.9096C61.3742 60.2652 61.752 60.4207 62.1965 60.3763C62.6409 60.3319 63.0409 60.1541 63.3965 59.843C63.752 59.5319 63.9298 59.1541 63.9298 58.7096C63.9298 58.2652 63.752 57.8652 63.3965 57.5096C63.0409 57.1541 62.6409 56.9763 62.1965 56.9763ZM28.8631 62.043C27.9742 62.043 27.1965 61.7096 26.5298 61.043C25.8631 60.3763 25.5298 59.5985 25.5298 58.7096C25.5298 57.8207 25.8631 57.043 26.5298 56.3763C27.1965 55.7096 27.9742 55.3763 28.8631 55.3763C29.752 55.3763 30.5298 55.7096 31.1965 56.3763C31.8631 57.043 32.1965 57.8207 32.1965 58.7096C32.1965 59.5985 31.8631 60.3763 31.1965 61.043C30.5298 61.7096 29.752 62.043 28.8631 62.043ZM28.8631 56.9763C28.4187 57.0652 28.0187 57.2652 27.6631 57.5763C27.3076 57.8874 27.152 58.2652 27.1965 58.7096C27.2409 59.1541 27.4187 59.5541 27.7298 59.9096C28.0409 60.2652 28.4187 60.4207 28.8631 60.3763C29.3076 60.3319 29.7076 60.1541 30.0631 59.843C30.4187 59.5319 30.5742 59.1541 30.5298 58.7096C30.4853 58.2652 30.3076 57.8652 29.9965 57.5096C29.6853 57.1541 29.3076 56.9763 28.8631 56.9763Z" fill="white"/>
</g>
<defs>
<clipPath id="clip0_20_4435">
<rect width="40.02" height="40" fill="white" transform="matrix(1 0 0 -1 25.52 62.043)"/>
</clipPath>
</defs>
</svg>
