<svg width="72" height="72" viewBox="0 0 72 72" fill="none" xmlns="http://www.w3.org/2000/svg">
<path fill-rule="evenodd" clip-rule="evenodd" d="M36 72C55.8823 72 72 55.8823 72 36C72 16.1177 55.8823 0 36 0C16.1177 0 0 16.1177 0 36C0 55.8823 16.1177 72 36 72ZM8.71768 45.565C9.20893 46.0444 9.79782 46.2841 10.4844 46.2841C10.9223 46.2841 11.3278 46.1746 11.7006 45.9556C12.0735 45.7307 12.3754 45.4318 12.6062 45.0589C12.8429 44.6802 12.9643 44.2599 12.9702 43.7983C12.9643 43.1236 12.7098 42.5465 12.2067 42.0671C11.7095 41.5877 11.1354 41.348 10.4844 41.348C9.79782 41.348 9.20893 41.5877 8.71768 42.0671C8.23236 42.5465 7.99266 43.1236 7.99858 43.7983C7.99266 44.4908 8.23236 45.0797 8.71768 45.565ZM31.044 46V27.8182H26.108V37.3352H25.9659L19.5028 27.8182H15.3125V46H20.2486V36.4474H20.3551L26.9247 46H31.044ZM33.1289 27.8182V46H46.1971V42.0227H38.065V38.8977H45.5579V34.9205H38.065V31.7955H46.2326V27.8182H33.1289ZM47.9335 27.8182V31.7955H53.4023V46H58.2673V31.7955H63.7361V27.8182H47.9335Z" fill="#EF4050"/>
</svg>
